<?xml version="1.0" encoding="UTF-8" standalone="no" ?>
<!DOCTYPE svg PUBLIC "-//W3C//DTD SVG 1.1//EN" "http://www.w3.org/Graphics/SVG/1.1/DTD/svg11.dtd">
<svg xmlns="http://www.w3.org/2000/svg" xmlns:xlink="http://www.w3.org/1999/xlink" version="1.1" x="0px" y="0px" viewBox="0 0 500 500" xml:space="preserve">
<desc>Created with Fabric.js 4.6.0</desc>
<defs>
</defs>
<g transform="matrix(0.13 0 0 -0.13 94.48 249.97)" id="VTeMsP0Kb1qtq1xLHaH4C"  >
<path style="stroke: none; stroke-width: 1; stroke-dasharray: none; stroke-linecap: butt; stroke-dashoffset: 0; stroke-linejoin: miter; stroke-miterlimit: 4; fill: rgb(234,170,0); fill-rule: nonzero; opacity: 1;" vector-effect="non-scaling-stroke"  transform=" translate(-442.02, -188.9)" d="M 560.391 21.9492 L 372.699 216.801 L 372.699 21.9492 L 306.02 21.9492 L 306.02 355.859 L 326.988 355.859 L 511.328 169.141 L 511.328 355.859 L 578.012 355.859 L 578.012 21.9492 Z" stroke-linecap="round" />
</g>
<g transform="matrix(0.13 0 0 -0.13 135.06 249.97)" id="SIsiuoSHItES7hpJo3VOF"  >
<path style="stroke: none; stroke-width: 1; stroke-dasharray: none; stroke-linecap: butt; stroke-dashoffset: 0; stroke-linejoin: miter; stroke-miterlimit: 4; fill: rgb(234,170,0); fill-rule: evenodd; opacity: 1;" vector-effect="non-scaling-stroke"  transform=" translate(-746.39, -188.9)" d="M 865.551 355.859 C 865.551 356.12899999999996 865.551 356.40999999999997 865.5120000000001 356.64099999999996 C 865.469 356.90999999999997 865.4300000000001 357.14799999999997 865.3910000000001 357.42199999999997 C 865.3520000000001 357.65999999999997 865.2700000000001 357.92999999999995 865.1990000000001 358.15999999999997 C 865.1210000000001 358.441 865.0390000000001 358.67199999999997 864.961 358.90999999999997 C 864.84 359.14099999999996 864.73 359.37899999999996 864.609 359.609 C 864.488 359.84 864.34 360.078 864.219 360.27 C 864.0590000000001 360.512 863.9100000000001 360.69899999999996 863.75 360.89799999999997 C 863.59 361.09 863.398 361.289 863.199 361.47999999999996 C 863.0509999999999 361.67999999999995 862.852 361.84 862.66 361.98799999999994 C 862.461 362.1909999999999 862.23 362.3399999999999 862.031 362.46099999999996 C 861.8009999999999 362.621 861.559 362.72999999999996 861.371 362.852 C 861.129 363.012 860.898 363.09 860.621 363.19899999999996 C 860.391 363.31999999999994 860.16 363.39799999999997 859.922 363.47999999999996 C 859.648 363.551 859.4100000000001 363.59 859.1410000000001 363.67199999999997 C 858.9100000000001 363.71099999999996 858.6290000000001 363.74999999999994 858.398 363.789 C 858.121 363.789 857.852 363.789 857.621 363.789 L 635.16 363.789 C 634.9219999999999 363.789 634.648 363.789 634.379 363.789 C 634.141 363.75 633.871 363.711 633.629 363.67199999999997 C 633.359 363.59 633.09 363.551 632.852 363.47999999999996 C 632.621 363.39799999999997 632.379 363.31999999999994 632.1089999999999 363.19899999999996 C 631.8789999999999 363.09 631.641 363.01199999999994 631.41 362.852 C 631.211 362.72999999999996 630.98 362.621 630.7379999999999 362.46099999999996 C 630.5509999999999 362.34 630.309 362.191 630.121 361.98799999999994 C 629.922 361.8399999999999 629.73 361.67999999999995 629.531 361.47999999999996 C 629.3789999999999 361.289 629.18 361.09 629.02 360.89799999999997 C 628.871 360.69899999999996 628.711 360.51199999999994 628.5509999999999 360.27 C 628.3979999999999 360.078 628.281 359.84 628.16 359.609 C 628.0509999999999 359.37899999999996 627.93 359.14099999999996 627.809 358.90999999999997 C 627.73 358.67199999999997 627.66 358.441 627.578 358.15999999999997 C 627.5 357.92999999999995 627.422 357.65999999999997 627.379 357.42199999999997 C 627.34 357.14799999999997 627.301 356.90999999999997 627.27 356.64099999999996 C 627.23 356.40999999999997 627.23 356.12899999999996 627.23 355.859 L 627.23 21.9492 C 627.23 21.7188 627.23 21.4492 627.27 21.1719 C 627.3009999999999 20.9414 627.34 20.6602 627.379 20.4297 C 627.422 20.1602 627.5 19.9219 627.578 19.6484 C 627.66 19.4102 627.73 19.1797 627.809 18.949199999999998 C 627.93 18.671899999999997 628.0509999999999 18.441399999999998 628.16 18.2383 C 628.281 18.011699999999998 628.398 17.769499999999997 628.5509999999999 17.539099999999998 C 628.7109999999999 17.339799999999997 628.871 17.1484 629.02 16.910199999999996 C 629.18 16.718799999999995 629.379 16.519499999999997 629.531 16.371099999999995 C 629.7299999999999 16.171899999999994 629.9219999999999 15.980499999999996 630.121 15.820299999999994 C 630.309 15.660199999999994 630.5509999999999 15.511699999999994 630.7379999999999 15.351599999999994 C 630.9799999999999 15.230499999999994 631.2109999999999 15.078099999999994 631.41 14.960899999999993 C 631.641 14.839799999999993 631.879 14.730499999999994 632.1089999999999 14.648399999999993 C 632.3789999999999 14.531299999999993 632.6209999999999 14.449199999999994 632.852 14.378899999999993 C 633.09 14.300799999999994 633.3589999999999 14.218799999999993 633.629 14.179699999999993 C 633.871 14.140599999999994 634.141 14.101599999999994 634.379 14.058599999999993 C 634.648 14.019499999999994 634.922 14.019499999999994 635.16 14.019499999999994 L 701.8399999999999 14.019499999999994 C 702.1089999999999 14.019499999999994 702.3789999999999 14.019499999999994 702.6209999999999 14.058599999999993 C 702.8909999999998 14.101599999999992 703.1209999999999 14.140599999999994 703.3979999999999 14.179699999999993 C 703.6719999999999 14.218799999999993 703.9099999999999 14.300799999999994 704.141 14.378899999999993 C 704.41 14.449199999999992 704.6479999999999 14.531299999999993 704.879 14.648399999999993 C 705.121 14.730499999999994 705.352 14.839799999999993 705.59 14.960899999999993 C 705.82 15.078099999999994 706.051 15.230499999999994 706.25 15.351599999999994 C 706.48 15.511699999999994 706.68 15.660199999999994 706.879 15.820299999999994 C 707.07 15.980499999999994 707.27 16.171899999999994 707.461 16.371099999999995 C 707.66 16.519499999999994 707.809 16.718799999999995 707.969 16.910199999999996 C 708.1600000000001 17.148399999999995 708.32 17.339799999999997 708.441 17.539099999999998 C 708.59 17.769499999999997 708.711 18.011699999999998 708.871 18.2383 C 708.98 18.441399999999998 709.102 18.671899999999997 709.18 18.949199999999998 C 709.3009999999999 19.179699999999997 709.3789999999999 19.410199999999996 709.449 19.6484 C 709.531 19.921899999999997 709.5699999999999 20.1602 709.6479999999999 20.4297 C 709.6909999999999 20.6602 709.7299999999999 20.9414 709.7699999999999 21.1719 C 709.7699999999999 21.4492 709.8009999999998 21.7188 709.8009999999998 21.9492 L 709.8009999999998 153.121 L 830.4689999999998 153.121 C 830.6989999999998 153.121 830.9799999999998 153.121 831.2499999999998 153.16 C 831.4799999999998 153.16 831.7619999999997 153.19899999999998 831.9879999999998 153.281 C 832.2699999999999 153.32 832.4999999999998 153.398 832.7699999999999 153.441 C 833.0119999999998 153.52 833.2379999999998 153.629 833.4799999999999 153.711 C 833.7499999999999 153.828 833.9799999999999 153.949 834.18 154.05900000000003 C 834.41 154.18000000000004 834.6479999999999 154.30100000000002 834.8789999999999 154.449 C 835.0779999999999 154.609 835.2699999999999 154.77 835.512 154.92200000000003 C 835.699 155.07800000000003 835.8979999999999 155.27000000000004 836.0509999999999 155.43000000000004 C 836.2499999999999 155.62100000000004 836.449 155.82000000000002 836.602 156.02000000000004 C 836.762 156.21100000000004 836.91 156.41000000000003 837.0699999999999 156.64100000000005 C 837.1909999999999 156.87900000000005 837.3399999999999 157.07000000000005 837.4609999999999 157.30100000000004 C 837.5779999999999 157.53900000000004 837.699 157.77000000000004 837.7699999999999 158.01200000000006 C 837.8909999999998 158.23800000000006 837.9689999999998 158.52000000000007 838.0509999999998 158.75000000000006 C 838.1209999999999 158.98000000000005 838.1989999999998 159.26200000000006 838.2379999999998 159.48800000000006 C 838.2809999999998 159.77000000000007 838.3199999999998 160.00000000000006 838.3589999999998 160.27000000000007 C 838.3979999999998 160.55100000000007 838.3979999999998 160.78100000000006 838.3979999999998 161.05100000000007 L 838.3979999999998 227.73000000000008 C 838.3979999999998 228.01200000000009 838.3979999999998 228.23800000000008 838.3589999999998 228.52000000000007 C 838.3199999999998 228.78900000000007 838.2809999999998 229.02000000000007 838.2379999999998 229.30100000000007 C 838.1989999999998 229.53100000000006 838.1209999999999 229.80100000000007 838.0509999999998 230.03900000000007 C 837.9689999999998 230.27000000000007 837.8909999999998 230.55100000000007 837.7699999999999 230.78100000000006 C 837.6989999999998 231.02000000000007 837.5779999999999 231.25000000000006 837.4609999999999 231.48000000000008 C 837.3399999999999 231.71900000000008 837.1909999999999 231.91000000000008 837.0699999999999 232.14800000000008 C 836.91 232.37900000000008 836.762 232.5780000000001 836.602 232.7700000000001 C 836.449 232.9690000000001 836.25 233.16000000000008 836.0509999999999 233.3590000000001 C 835.8979999999999 233.5200000000001 835.699 233.7110000000001 835.512 233.8710000000001 C 835.27 234.0200000000001 835.078 234.1800000000001 834.8789999999999 234.3400000000001 C 834.6479999999999 234.48800000000008 834.4099999999999 234.6090000000001 834.18 234.73000000000008 C 833.9799999999999 234.8400000000001 833.75 234.96100000000007 833.4799999999999 235.0780000000001 C 833.2379999999999 235.16000000000008 833.012 235.2700000000001 832.7699999999999 235.3520000000001 C 832.4999999999999 235.39100000000008 832.2699999999999 235.46900000000008 831.9879999999998 235.51200000000009 C 831.7619999999998 235.5900000000001 831.4799999999998 235.6210000000001 831.2499999999998 235.6210000000001 C 830.9799999999998 235.66000000000008 830.6989999999997 235.66000000000008 830.4689999999998 235.66000000000008 L 709.801 235.66000000000008 L 709.801 281.2500000000001 L 857.6210000000001 281.2500000000001 C 857.8520000000001 281.2500000000001 858.1210000000001 281.2500000000001 858.3980000000001 281.2890000000001 C 858.6290000000001 281.2890000000001 858.9100000000001 281.3280000000001 859.1410000000002 281.4100000000001 C 859.4100000000002 281.44900000000007 859.6480000000001 281.5200000000001 859.9220000000001 281.6020000000001 C 860.1600000000002 281.68000000000006 860.3910000000002 281.7620000000001 860.6210000000001 281.8400000000001 C 860.8980000000001 281.94900000000007 861.1290000000001 282.0700000000001 861.3710000000001 282.1910000000001 C 861.5590000000001 282.3010000000001 861.801 282.4220000000001 862.0310000000001 282.5780000000001 C 862.23 282.7300000000001 862.461 282.8910000000001 862.6600000000001 283.0510000000001 C 862.8520000000001 283.1990000000001 863.051 283.3980000000001 863.1990000000001 283.5510000000001 C 863.398 283.7500000000001 863.59 283.9490000000001 863.7500000000001 284.1410000000001 C 863.9100000000001 284.3400000000001 864.0590000000001 284.57000000000005 864.2190000000002 284.7700000000001 C 864.3400000000001 285.0000000000001 864.4880000000002 285.19900000000007 864.6090000000002 285.4300000000001 C 864.7300000000001 285.66000000000014 864.8400000000001 285.89800000000014 864.9610000000001 286.12900000000013 C 865.0390000000001 286.37100000000015 865.1210000000001 286.64100000000013 865.1990000000002 286.87900000000013 C 865.2700000000002 287.10900000000015 865.3520000000002 287.37900000000013 865.3910000000002 287.62100000000015 C 865.4300000000002 287.89100000000013 865.4690000000002 288.16000000000014 865.5120000000002 288.39800000000014 C 865.5510000000002 288.67200000000014 865.5510000000002 288.91000000000014 865.5510000000002 289.1800000000001 z M 849.648 347.93 L 643.09 347.93 L 643.09 29.9219 L 693.9100000000001 29.9219 L 693.9100000000001 161.051 C 693.9100000000001 161.32799999999997 693.9100000000001 161.559 693.9490000000001 161.83999999999997 C 693.98 162.06999999999996 694.0200000000001 162.33999999999997 694.0590000000001 162.62099999999998 C 694.1020000000001 162.85199999999998 694.1800000000001 163.12099999999998 694.2620000000001 163.35899999999998 C 694.34 163.58999999999997 694.4100000000001 163.87099999999998 694.5310000000001 164.10199999999998 C 694.609 164.33999999999997 694.73 164.56999999999996 694.84 164.801 C 694.961 165.039 695.121 165.23 695.23 165.469 C 695.391 165.66 695.551 165.898 695.6990000000001 166.09 C 695.859 166.28900000000002 696.051 166.48 696.2500000000001 166.68 C 696.4100000000001 166.84 696.6020000000001 167.031 696.8010000000002 167.191 C 697.0310000000002 167.34 697.2300000000001 167.5 697.4220000000001 167.66 C 697.6600000000002 167.809 697.8910000000002 167.93 698.0900000000001 168.051 C 698.3200000000002 168.16 698.5510000000002 168.28099999999998 698.8280000000002 168.398 C 699.0590000000002 168.48 699.3010000000002 168.551 699.5310000000002 168.629 C 699.8010000000002 168.71099999999998 700.0390000000002 168.789 700.3090000000002 168.828 C 700.5510000000002 168.91 700.8200000000002 168.949 701.0510000000002 168.949 C 701.3280000000002 168.98000000000002 701.6020000000002 168.98000000000002 701.8400000000001 168.98000000000002 L 822.5 168.98000000000002 L 822.5 219.80100000000002 L 701.84 219.80100000000002 C 701.602 219.80100000000002 701.3280000000001 219.80100000000002 701.051 219.84 C 700.82 219.84 700.551 219.879 700.3090000000001 219.961 C 700.0390000000001 220 699.801 220.078 699.5310000000001 220.16000000000003 C 699.301 220.23000000000002 699.0590000000001 220.30900000000003 698.8280000000001 220.39100000000002 C 698.551 220.51200000000003 698.32 220.621 698.09 220.73800000000003 C 697.8910000000001 220.85900000000004 697.6600000000001 220.98000000000002 697.422 221.12900000000002 C 697.23 221.28900000000002 697.0310000000001 221.449 696.801 221.60200000000003 C 696.6020000000001 221.76200000000003 696.4100000000001 221.94900000000004 696.25 222.10900000000004 C 696.051 222.30100000000004 695.859 222.50000000000003 695.699 222.69900000000004 C 695.5509999999999 222.89100000000005 695.391 223.12100000000004 695.2299999999999 223.32000000000005 C 695.1209999999999 223.55100000000004 694.9609999999999 223.75000000000006 694.8399999999999 223.98000000000005 C 694.7299999999999 224.21900000000005 694.6089999999999 224.44900000000004 694.531 224.69100000000006 C 694.41 224.92200000000005 694.3399999999999 225.19900000000007 694.262 225.43000000000006 C 694.18 225.66000000000005 694.102 225.94100000000006 694.059 226.17200000000005 C 694.02 226.44900000000004 693.98 226.71900000000005 693.949 226.94900000000004 C 693.91 227.23000000000005 693.91 227.46100000000004 693.91 227.73000000000005 L 693.91 289.18000000000006 C 693.91 289.44900000000007 693.91 289.6910000000001 693.949 289.96100000000007 C 693.9799999999999 290.2300000000001 694.02 290.46900000000005 694.059 290.73800000000006 C 694.102 290.9800000000001 694.18 291.25000000000006 694.262 291.4800000000001 C 694.3399999999999 291.71900000000005 694.41 291.98800000000006 694.531 292.2300000000001 C 694.6089999999999 292.46100000000007 694.7299999999999 292.69900000000007 694.8399999999999 292.93000000000006 C 694.9609999999999 293.1600000000001 695.1209999999999 293.35900000000004 695.2299999999999 293.5900000000001 C 695.3909999999998 293.8280000000001 695.5509999999999 294.0200000000001 695.699 294.2190000000001 C 695.8589999999999 294.4100000000001 696.0509999999999 294.6090000000001 696.25 294.8010000000001 C 696.41 295.0000000000001 696.602 295.1600000000001 696.801 295.3090000000001 C 697.0310000000001 295.4690000000001 697.23 295.6210000000001 697.422 295.78100000000006 C 697.6600000000001 295.9410000000001 697.8910000000001 296.05100000000004 698.09 296.1720000000001 C 698.32 296.2890000000001 698.551 296.4100000000001 698.8280000000001 296.5200000000001 C 699.0590000000001 296.6020000000001 699.301 296.7190000000001 699.5310000000001 296.8010000000001 C 699.801 296.8790000000001 700.0390000000001 296.9100000000001 700.3090000000001 296.9490000000001 C 700.551 297.0310000000001 700.82 297.0700000000001 701.051 297.0700000000001 C 701.3280000000001 297.1090000000001 701.6020000000001 297.1090000000001 701.84 297.1090000000001 L 849.648 297.1090000000001 z" stroke-linecap="round" />
</g>
<g transform="matrix(0.13 0 0 -0.13 169.93 249.94)" id="YMnG56VDkWsQB_ak8CYNV"  >
<path style="stroke: none; stroke-width: 1; stroke-dasharray: none; stroke-linecap: butt; stroke-dashoffset: 0; stroke-linejoin: miter; stroke-miterlimit: 4; fill: rgb(234,170,0); fill-rule: evenodd; opacity: 1;" vector-effect="non-scaling-stroke"  transform=" translate(-1007.89, -189.14)" d="M 986.988 355.859 C 986.988 356.12899999999996 986.988 356.40999999999997 986.9490000000001 356.64099999999996 C 986.9490000000001 356.90999999999997 986.9100000000001 357.14799999999997 986.879 357.42199999999997 C 986.801 357.65999999999997 986.7620000000001 357.92999999999995 986.6800000000001 358.15999999999997 C 986.6020000000001 358.441 986.48 358.67199999999997 986.4100000000001 358.90999999999997 C 986.2890000000001 359.14099999999996 986.2110000000001 359.37899999999996 986.051 359.609 C 985.941 359.84 985.82 360.078 985.6600000000001 360.27 C 985.5120000000001 360.512 985.3520000000001 360.69899999999996 985.1990000000001 360.89799999999997 C 985.0390000000001 361.09 984.879 361.289 984.691 361.47999999999996 C 984.488 361.67999999999995 984.301 361.84 984.102 361.98799999999994 C 983.91 362.1909999999999 983.711 362.3399999999999 983.48 362.46099999999996 C 983.2810000000001 362.621 983.051 362.72999999999996 982.809 362.852 C 982.578 363.012 982.3399999999999 363.09 982.1089999999999 363.19899999999996 C 981.8789999999999 363.31999999999994 981.641 363.39799999999997 981.3709999999999 363.47999999999996 C 981.1289999999999 363.551 980.8589999999999 363.59 980.6209999999999 363.67199999999997 C 980.3519999999999 363.71099999999996 980.1209999999999 363.74999999999994 979.8399999999999 363.789 C 979.5699999999999 363.789 979.3399999999999 363.789 979.059 363.789 L 912.3789999999999 363.789 C 912.1089999999999 363.789 911.8789999999999 363.789 911.6019999999999 363.789 C 911.3279999999999 363.75 911.0899999999999 363.711 910.8199999999998 363.67199999999997 C 910.5899999999998 363.59 910.3089999999999 363.551 910.0779999999999 363.47999999999996 C 909.8399999999998 363.39799999999997 909.5699999999998 363.31999999999994 909.3399999999998 363.19899999999996 C 909.1019999999997 363.09 908.8709999999998 363.01199999999994 908.6289999999998 362.852 C 908.3979999999998 362.72999999999996 908.1989999999998 362.621 907.9689999999998 362.46099999999996 C 907.7699999999999 362.34 907.5389999999999 362.191 907.3399999999998 361.98799999999994 C 907.1479999999998 361.8399999999999 906.9489999999998 361.67999999999995 906.7619999999998 361.47999999999996 C 906.6019999999999 361.289 906.4099999999999 361.09 906.2499999999999 360.89799999999997 C 906.0899999999999 360.69899999999996 905.9409999999999 360.51199999999994 905.7809999999998 360.27 C 905.6209999999999 360.078 905.5119999999998 359.84 905.3909999999998 359.609 C 905.2699999999999 359.37899999999996 905.1599999999999 359.14099999999996 905.0389999999999 358.90999999999997 C 904.9609999999999 358.67199999999997 904.8399999999999 358.441 904.8009999999998 358.15999999999997 C 904.7299999999998 357.92999999999995 904.6479999999998 357.65999999999997 904.6089999999998 357.42199999999997 C 904.5309999999998 357.14799999999997 904.4879999999998 356.90999999999997 904.4879999999998 356.64099999999996 C 904.4489999999998 356.40999999999997 904.4489999999998 356.12899999999996 904.4489999999998 355.859 L 904.4489999999998 22.4609 C 904.4489999999998 22.191399999999998 904.4489999999998 21.9102 904.4879999999998 21.6797 C 904.4879999999998 21.4102 904.5309999999998 21.1289 904.6089999999998 20.8984 C 904.6479999999998 20.6211 904.7299999999998 20.3906 904.8009999999998 20.1602 C 904.8399999999998 19.878899999999998 904.9609999999998 19.6484 905.0389999999999 19.4102 C 905.1599999999999 19.1797 905.2699999999999 18.9492 905.3909999999998 18.7109 C 905.5119999999998 18.4805 905.6209999999999 18.2383 905.7809999999998 18.0508 C 905.9409999999998 17.8086 906.0899999999998 17.6211 906.2499999999999 17.421899999999997 C 906.4099999999999 17.191399999999998 906.6019999999999 17.031299999999998 906.7619999999998 16.839799999999997 C 906.9489999999998 16.640599999999996 907.1479999999998 16.480499999999996 907.3399999999998 16.289099999999998 C 907.5389999999998 16.128899999999998 907.7699999999998 15.980499999999997 907.9689999999998 15.859399999999997 C 908.1989999999998 15.699199999999998 908.3979999999998 15.550799999999997 908.6289999999998 15.429699999999997 C 908.8709999999998 15.308599999999997 909.1019999999997 15.199199999999998 909.3399999999998 15.121099999999997 C 909.5699999999998 14.999999999999996 909.8399999999998 14.921899999999997 910.0779999999999 14.839799999999997 C 910.3089999999999 14.769499999999997 910.5899999999998 14.691399999999996 910.8199999999998 14.648399999999997 C 911.0899999999998 14.609399999999997 911.3279999999999 14.570299999999998 911.6019999999999 14.531299999999996 C 911.8789999999999 14.531299999999996 912.1089999999998 14.488299999999997 912.3789999999999 14.488299999999997 L 1103.4 14.488299999999997 C 1103.63 14.488299999999997 1103.91 14.531299999999996 1104.18 14.531299999999996 C 1104.41 14.570299999999996 1104.69 14.609399999999996 1104.92 14.648399999999997 C 1105.2 14.691399999999996 1105.43 14.769499999999997 1105.7 14.839799999999997 C 1105.94 14.921899999999997 1106.17 14.999999999999996 1106.45 15.121099999999997 C 1106.68 15.199199999999996 1106.91 15.308599999999997 1107.15 15.429699999999997 C 1107.3400000000001 15.550799999999997 1107.5800000000002 15.699199999999998 1107.8100000000002 15.859399999999997 C 1108.0100000000002 15.980499999999997 1108.2400000000002 16.128899999999998 1108.4400000000003 16.289099999999998 C 1108.6300000000003 16.4805 1108.8300000000004 16.6406 1108.9800000000002 16.839799999999997 C 1109.1800000000003 17.031299999999998 1109.3800000000003 17.191399999999998 1109.5300000000002 17.421899999999997 C 1109.6900000000003 17.6211 1109.8400000000001 17.8086 1110.0000000000002 18.0508 C 1110.1200000000001 18.2383 1110.2700000000002 18.4805 1110.3900000000003 18.7109 C 1110.5100000000002 18.949199999999998 1110.6200000000003 19.1797 1110.7400000000002 19.4102 C 1110.8200000000002 19.6484 1110.9000000000003 19.878899999999998 1110.9800000000002 20.1602 C 1111.0500000000002 20.3906 1111.1300000000003 20.6211 1111.1700000000003 20.8984 C 1111.2100000000003 21.128899999999998 1111.2500000000002 21.4102 1111.2900000000002 21.6797 C 1111.3300000000002 21.9102 1111.3300000000002 22.1914 1111.3300000000002 22.4609 L 1111.3300000000002 88.6289 C 1111.3300000000002 88.9102 1111.3300000000002 89.1797 1111.2900000000002 89.4102 C 1111.2500000000002 89.6914 1111.2100000000003 89.96090000000001 1111.1700000000003 90.1992 C 1111.1300000000003 90.4688 1111.0500000000004 90.6992 1110.9800000000002 90.9414 C 1110.9000000000003 91.2109 1110.8200000000002 91.4492 1110.7400000000002 91.6797 C 1110.6200000000003 91.9102 1110.5100000000002 92.1484 1110.3900000000003 92.3789 C 1110.2700000000004 92.6211 1110.1200000000003 92.8516 1110.0000000000002 93.0508 C 1109.8400000000001 93.2813 1109.6900000000003 93.48049999999999 1109.5300000000002 93.6719 C 1109.38 93.91019999999999 1109.1800000000003 94.0586 1108.9800000000002 94.26169999999999 C 1108.8300000000002 94.44919999999999 1108.6300000000003 94.6094 1108.4400000000003 94.8008 C 1108.2400000000002 94.9609 1108.0100000000002 95.1211 1107.8100000000002 95.23049999999999 C 1107.5800000000002 95.39059999999999 1107.3400000000001 95.5508 1107.15 95.66019999999999 C 1106.91 95.78129999999999 1106.68 95.8984 1106.45 95.98049999999999 C 1106.17 96.0898 1105.94 96.1719 1105.7 96.24999999999999 C 1105.43 96.32809999999999 1105.2 96.37109999999998 1104.92 96.44919999999999 C 1104.69 96.48049999999999 1104.41 96.5195 1104.18 96.55859999999998 C 1103.91 96.55859999999998 1103.63 96.60159999999999 1103.4 96.60159999999999 L 986.988 96.60159999999999 Z M 971.129 347.93 L 920.309 347.93 L 920.309 30.3906 L 1095.47 30.3906 L 1095.47 80.6992 L 979.059 80.6992 C 978.828 80.6992 978.5509999999999 80.73830000000001 978.281 80.73830000000001 C 978.0509999999999 80.78130000000002 977.77 80.8203 977.539 80.85940000000001 C 977.27 80.89840000000001 977.031 80.9805 976.762 81.05080000000001 C 976.52 81.12890000000002 976.289 81.21090000000001 976.02 81.3281 C 975.781 81.4102 975.5509999999999 81.51950000000001 975.309 81.6406 C 975.121 81.7617 974.879 81.9102 974.648 82.0313 C 974.4490000000001 82.1914 974.219 82.3398 974.02 82.5 C 973.828 82.6992 973.629 82.8516 973.441 83.0508 C 973.2810000000001 83.19919999999999 973.09 83.3984 972.9300000000001 83.6289 C 972.7700000000001 83.8281 972.6210000000001 84.01950000000001 972.461 84.2617 C 972.301 84.4492 972.191 84.6914 972.07 84.92190000000001 C 971.9490000000001 85.1602 971.84 85.3906 971.719 85.62110000000001 C 971.6410000000001 85.85940000000001 971.5590000000001 86.08980000000001 971.48 86.3281 C 971.41 86.6016 971.328 86.83980000000001 971.289 87.10940000000001 C 971.25 87.33980000000001 971.211 87.62110000000001 971.172 87.8906 C 971.129 88.12110000000001 971.129 88.39840000000001 971.129 88.6289 z" stroke-linecap="round" />
</g>
<g transform="matrix(0.13 0 0 -0.13 207.21 250.35)" id="LEl_5r6eZoPI6qFAFagyd"  >
<path style="stroke: none; stroke-width: 1; stroke-dasharray: none; stroke-linecap: butt; stroke-dashoffset: 0; stroke-linejoin: miter; stroke-miterlimit: 4; fill: rgb(234,170,0); fill-rule: evenodd; opacity: 1;" vector-effect="non-scaling-stroke"  transform=" translate(-1287.5, -186.05)" d="M 1408.87 142.699 C 1408.55 143.55100000000002 1408.3999999999999 144.41000000000003 1408.3999999999999 145.352 L 1408.3999999999999 347.93 L 1357.58 347.93 L 1357.58 147.578 C 1357.8899999999999 146.68 1358.05 145.781 1358.05 144.84 C 1358.05 144.77 1358.05 144.691 1358.05 144.648 C 1357.5 125.199 1350.55 108.78899999999999 1337.1499999999999 95.4297 C 1323.55 81.8008 1307.07 75 1287.73 75 C 1268.09 75 1251.45 81.8008 1237.81 95.4297 C 1223.87 109.37899999999999 1216.9099999999999 125.97999999999999 1216.9099999999999 145.352 L 1216.9099999999999 347.93 L 1166.09 347.93 L 1166.09 144.84 C 1166.33 111.52000000000001 1178.28 83.12110000000001 1201.9499999999998 59.5703 C 1225.62 35.980500000000006 1254.2199999999998 24.179700000000004 1287.7299999999998 24.179700000000004 C 1321.0899999999997 24.179700000000004 1349.61 36.01950000000001 1373.2799999999997 59.6094 C 1396.3699999999997 82.6602 1408.2399999999998 110.352 1408.8699999999997 142.699 z M 1342.07 142.5 C 1341.84 143.281 1341.72 144.059 1341.72 144.84 L 1341.72 355.85900000000004 C 1341.72 356.129 1341.72 356.41 1341.76 356.641 C 1341.76 356.91 1341.8 357.148 1341.8799999999999 357.422 C 1341.9099999999999 357.66 1341.9899999999998 357.93 1342.07 358.16 C 1342.1499999999999 358.44100000000003 1342.23 358.672 1342.3 358.91 C 1342.4199999999998 359.141 1342.54 359.379 1342.6599999999999 359.60900000000004 C 1342.7699999999998 359.84000000000003 1342.8899999999999 360.07800000000003 1343.05 360.27000000000004 C 1343.2 360.51200000000006 1343.36 360.699 1343.52 360.898 C 1343.67 361.09000000000003 1343.87 361.28900000000004 1344.02 361.48 C 1344.22 361.68 1344.41 361.84000000000003 1344.61 361.988 C 1344.8 362.191 1345.04 362.34 1345.2299999999998 362.461 C 1345.4699999999998 362.62100000000004 1345.6599999999999 362.73 1345.8999999999999 362.85200000000003 C 1346.1299999999999 363.01200000000006 1346.37 363.09000000000003 1346.6 363.199 C 1346.84 363.32 1347.11 363.398 1347.34 363.48 C 1347.58 363.55100000000004 1347.85 363.59000000000003 1348.09 363.672 C 1348.36 363.711 1348.59 363.75 1348.87 363.78900000000004 C 1349.1399999999999 363.78900000000004 1349.3799999999999 363.78900000000004 1349.6499999999999 363.78900000000004 L 1416.33 363.78900000000004 C 1416.6 363.78900000000004 1416.84 363.78900000000004 1417.11 363.78900000000004 C 1417.3799999999999 363.75000000000006 1417.62 363.71100000000007 1417.8899999999999 363.672 C 1418.12 363.59000000000003 1418.3999999999999 363.55100000000004 1418.6299999999999 363.48 C 1418.9099999999999 363.398 1419.1399999999999 363.32 1419.3799999999999 363.199 C 1419.61 363.09000000000003 1419.84 363.012 1420.08 362.85200000000003 C 1420.31 362.73 1420.55 362.62100000000004 1420.74 362.461 C 1420.98 362.34000000000003 1421.17 362.19100000000003 1421.3700000000001 361.988 C 1421.5600000000002 361.84 1421.7600000000002 361.68 1421.95 361.48 C 1422.15 361.28900000000004 1422.3 361.09000000000003 1422.46 360.898 C 1422.6200000000001 360.699 1422.77 360.512 1422.93 360.27000000000004 C 1423.0900000000001 360.07800000000003 1423.2 359.84000000000003 1423.3200000000002 359.60900000000004 C 1423.4800000000002 359.379 1423.5500000000002 359.141 1423.67 358.91 C 1423.75 358.672 1423.8700000000001 358.44100000000003 1423.95 358.16 C 1424.02 357.93 1424.06 357.66 1424.14 357.422 C 1424.18 357.148 1424.22 356.91 1424.22 356.641 C 1424.26 356.41 1424.26 356.129 1424.26 355.85900000000004 L 1424.26 148.051 C 1424.61 147.148 1424.77 146.25 1424.77 145.35199999999998 C 1424.77 107.46099999999998 1411.33 75.16019999999997 1384.49 48.35939999999998 C 1357.7 21.67969999999998 1325.47 8.320309999999978 1287.73 8.320309999999978 C 1249.88 8.320309999999978 1217.54 21.640599999999978 1190.74 48.320299999999975 C 1163.98 74.92189999999998 1150.47 107.10899999999998 1150.23 144.83999999999997 L 1150.23 355.859 C 1150.23 356.12899999999996 1150.23 356.40999999999997 1150.27 356.64099999999996 C 1150.27 356.90999999999997 1150.31 357.14799999999997 1150.3899999999999 357.42199999999997 C 1150.4299999999998 357.65999999999997 1150.5099999999998 357.92999999999995 1150.59 358.15999999999997 C 1150.6599999999999 358.441 1150.74 358.67199999999997 1150.82 358.90999999999997 C 1150.9399999999998 359.14099999999996 1151.05 359.37899999999996 1151.1699999999998 359.609 C 1151.2899999999997 359.84 1151.4099999999999 360.078 1151.56 360.27 C 1151.72 360.512 1151.8799999999999 360.69899999999996 1152.03 360.89799999999997 C 1152.19 361.09 1152.3799999999999 361.289 1152.54 361.47999999999996 C 1152.73 361.67999999999995 1152.93 361.84 1153.12 361.98799999999994 C 1153.32 362.1909999999999 1153.55 362.3399999999999 1153.75 362.46099999999996 C 1153.98 362.621 1154.18 362.72999999999996 1154.41 362.852 C 1154.65 363.012 1154.88 363.09 1155.1200000000001 363.19899999999996 C 1155.3500000000001 363.31999999999994 1155.6200000000001 363.39799999999997 1155.8600000000001 363.47999999999996 C 1156.0900000000001 363.551 1156.3700000000001 363.59 1156.6000000000001 363.67199999999997 C 1156.88 363.71099999999996 1157.15 363.74999999999994 1157.38 363.74999999999994 C 1157.66 363.78899999999993 1157.89 363.78899999999993 1158.16 363.78899999999993 L 1224.8400000000001 363.78899999999993 C 1225.1200000000001 363.78899999999993 1225.39 363.78899999999993 1225.6200000000001 363.74999999999994 C 1225.9 363.74999999999994 1226.13 363.71099999999996 1226.41 363.67199999999997 C 1226.64 363.59 1226.91 363.551 1227.15 363.47999999999996 C 1227.42 363.39799999999997 1227.66 363.31999999999994 1227.89 363.19899999999996 C 1228.1200000000001 363.09 1228.3600000000001 363.01199999999994 1228.5900000000001 362.852 C 1228.8300000000002 362.72999999999996 1229.0600000000002 362.621 1229.2600000000002 362.46099999999996 C 1229.4900000000002 362.34 1229.6900000000003 362.191 1229.88 361.98799999999994 C 1230.0800000000002 361.8399999999999 1230.2700000000002 361.67999999999995 1230.47 361.47999999999996 C 1230.66 361.289 1230.82 361.09 1230.98 360.89799999999997 C 1231.17 360.69899999999996 1231.29 360.51199999999994 1231.45 360.27 C 1231.6000000000001 360.078 1231.72 359.84 1231.8400000000001 359.609 C 1231.9900000000002 359.37899999999996 1232.0700000000002 359.14099999999996 1232.19 358.90999999999997 C 1232.3 358.67199999999997 1232.38 358.441 1232.46 358.15999999999997 C 1232.54 357.92999999999995 1232.58 357.65999999999997 1232.66 357.42199999999997 C 1232.7 357.14799999999997 1232.73 356.90999999999997 1232.73 356.64099999999996 C 1232.77 356.40999999999997 1232.77 356.12899999999996 1232.77 355.859 L 1232.77 145.352 C 1232.77 130.391 1238.2 117.5 1249.02 106.641 C 1259.57 96.1289 1272.46 90.85940000000001 1287.73 90.85940000000001 C 1302.7 90.85940000000001 1315.43 96.1289 1325.94 106.641 C 1335.74 116.44900000000001 1341.13 128.398 1342.0700000000002 142.5 z" stroke-linecap="round" />
</g>
<g transform="matrix(0.13 0 0 -0.13 246.58 249.97)" id="QVHWqc-3QUrBTdoWP_ggj"  >
<path style="stroke: none; stroke-width: 1; stroke-dasharray: none; stroke-linecap: butt; stroke-dashoffset: 0; stroke-linejoin: miter; stroke-miterlimit: 4; fill: rgb(234,170,0); fill-rule: evenodd; opacity: 1;" vector-effect="non-scaling-stroke"  transform=" translate(-1582.79, -188.9)" d="M 1701.95 355.859 C 1701.95 356.12899999999996 1701.95 356.40999999999997 1701.91 356.64099999999996 C 1701.91 356.90999999999997 1701.88 357.14799999999997 1701.8400000000001 357.42199999999997 C 1701.7600000000002 357.65999999999997 1701.7200000000003 357.92999999999995 1701.64 358.15999999999997 C 1701.5600000000002 358.441 1701.48 358.67199999999997 1701.3700000000001 358.90999999999997 C 1701.2500000000002 359.14099999999996 1701.17 359.37899999999996 1701.0200000000002 359.609 C 1700.9000000000003 359.84 1700.7800000000002 360.078 1700.6200000000001 360.27 C 1700.5100000000002 360.512 1700.3500000000001 360.69899999999996 1700.16 360.89799999999997 C 1700 361.09 1699.8400000000001 361.289 1699.65 361.47999999999996 C 1699.45 361.67999999999995 1699.26 361.84 1699.0600000000002 361.98799999999994 C 1698.8700000000001 362.1909999999999 1698.67 362.3399999999999 1698.4400000000003 362.46099999999996 C 1698.2400000000002 362.621 1698.0100000000002 362.72999999999996 1697.7700000000002 362.852 C 1697.5400000000002 363.012 1697.3000000000002 363.09 1697.0700000000002 363.19899999999996 C 1696.8400000000001 363.31999999999994 1696.6000000000001 363.39799999999997 1696.3300000000002 363.47999999999996 C 1696.0900000000001 363.551 1695.8200000000002 363.59 1695.5900000000001 363.67199999999997 C 1695.3100000000002 363.71099999999996 1695.0800000000002 363.74999999999994 1694.8000000000002 363.789 C 1694.5700000000002 363.789 1694.3000000000002 363.789 1694.0200000000002 363.789 L 1471.6 363.789 C 1471.33 363.789 1471.05 363.789 1470.82 363.789 C 1470.55 363.75 1470.31 363.711 1470.04 363.67199999999997 C 1469.77 363.59 1469.53 363.551 1469.3 363.47999999999996 C 1469.02 363.39799999999997 1468.79 363.31999999999994 1468.55 363.19899999999996 C 1468.32 363.09 1468.09 363.01199999999994 1467.85 362.852 C 1467.62 362.72999999999996 1467.3799999999999 362.621 1467.1899999999998 362.46099999999996 C 1466.9499999999998 362.34 1466.7599999999998 362.191 1466.5599999999997 361.98799999999994 C 1466.3699999999997 361.8399999999999 1466.1699999999996 361.67999999999995 1465.9799999999998 361.47999999999996 C 1465.7799999999997 361.289 1465.62 361.09 1465.4699999999998 360.89799999999997 C 1465.2699999999998 360.69899999999996 1465.12 360.51199999999994 1464.9999999999998 360.27 C 1464.8399999999997 360.078 1464.7299999999998 359.84 1464.5699999999997 359.609 C 1464.4499999999998 359.37899999999996 1464.3399999999997 359.14099999999996 1464.2599999999998 358.90999999999997 C 1464.1399999999999 358.67199999999997 1464.0599999999997 358.441 1463.9799999999998 358.15999999999997 C 1463.9099999999999 357.92999999999995 1463.87 357.65999999999997 1463.7899999999997 357.42199999999997 C 1463.7499999999998 357.14799999999997 1463.7099999999998 356.90999999999997 1463.6699999999998 356.64099999999996 C 1463.6699999999998 356.40999999999997 1463.6299999999999 356.12899999999996 1463.6299999999999 355.859 L 1463.6299999999999 289.18 C 1463.6299999999999 288.91 1463.6699999999998 288.672 1463.6699999999998 288.398 C 1463.7099999999998 288.16 1463.7499999999998 287.891 1463.7899999999997 287.62100000000004 C 1463.8699999999997 287.379 1463.9099999999996 287.10900000000004 1463.9799999999998 286.879 C 1464.0599999999997 286.641 1464.1399999999999 286.37100000000004 1464.2599999999998 286.129 C 1464.3399999999997 285.898 1464.4499999999998 285.66 1464.5699999999997 285.43 C 1464.7299999999998 285.199 1464.8399999999997 285 1464.9999999999998 284.77 C 1465.1199999999997 284.57 1465.2699999999998 284.34 1465.4699999999998 284.14099999999996 C 1465.62 283.94899999999996 1465.7799999999997 283.74999999999994 1465.9799999999998 283.551 C 1466.1699999999998 283.39799999999997 1466.37 283.199 1466.5599999999997 283.051 C 1466.7599999999998 282.89099999999996 1466.9499999999998 282.72999999999996 1467.1899999999998 282.578 C 1467.3799999999999 282.42199999999997 1467.62 282.301 1467.85 282.191 C 1468.09 282.07 1468.32 281.94899999999996 1468.55 281.84 C 1468.79 281.762 1469.02 281.67999999999995 1469.3 281.602 C 1469.53 281.52 1469.77 281.44899999999996 1470.04 281.40999999999997 C 1470.31 281.328 1470.55 281.289 1470.82 281.289 C 1471.05 281.25 1471.33 281.25 1471.6 281.25 L 1694.02 281.25 C 1694.3 281.25 1694.57 281.25 1694.8 281.289 C 1695.08 281.289 1695.31 281.328 1695.59 281.40999999999997 C 1695.82 281.44899999999996 1696.09 281.52 1696.33 281.602 C 1696.6 281.67999999999995 1696.84 281.762 1697.07 281.84 C 1697.3 281.94899999999996 1697.54 282.07 1697.77 282.191 C 1698.01 282.301 1698.24 282.42199999999997 1698.44 282.578 C 1698.67 282.72999999999996 1698.8700000000001 282.89099999999996 1699.06 283.051 C 1699.26 283.199 1699.45 283.39799999999997 1699.6499999999999 283.551 C 1699.84 283.75 1699.9999999999998 283.949 1700.1599999999999 284.14099999999996 C 1700.35 284.34 1700.5099999999998 284.56999999999994 1700.62 284.77 C 1700.78 285 1700.8999999999999 285.19899999999996 1701.02 285.43 C 1701.17 285.66 1701.25 285.898 1701.37 286.129 C 1701.4799999999998 286.37100000000004 1701.56 286.641 1701.6399999999999 286.879 C 1701.7199999999998 287.10900000000004 1701.7599999999998 287.379 1701.84 287.62100000000004 C 1701.8799999999999 287.891 1701.9099999999999 288.16 1701.9099999999999 288.398 C 1701.9499999999998 288.672 1701.9499999999998 288.91 1701.9499999999998 289.18 z M 1686.0900000000001 347.93 L 1479.531 347.93 L 1479.531 297.1097 L 1686.09 297.1097 Z M 1463.63 160.59 C 1463.63 160.309 1463.67 160.03900000000002 1463.67 159.80100000000002 C 1463.71 159.531 1463.75 159.30100000000002 1463.79 159.02 C 1463.87 158.78900000000002 1463.9099999999999 158.52 1463.98 158.281 C 1464.06 158.012 1464.14 157.77 1464.26 157.53900000000002 C 1464.34 157.30100000000002 1464.45 157.07000000000002 1464.57 156.84 C 1464.73 156.602 1464.84 156.371 1465 156.172 C 1465.12 155.941 1465.27 155.738 1465.47 155.551 C 1465.6200000000001 155.35199999999998 1465.78 155.16 1465.98 154.96099999999998 C 1466.17 154.76999999999998 1466.3700000000001 154.60899999999998 1466.56 154.44899999999998 C 1466.76 154.26199999999997 1466.95 154.10199999999998 1467.19 153.98 C 1467.38 153.828 1467.6200000000001 153.71099999999998 1467.8500000000001 153.59 C 1468.0900000000001 153.441 1468.3200000000002 153.359 1468.5500000000002 153.238 C 1468.7900000000002 153.121 1469.0200000000002 153.051 1469.3000000000002 152.969 C 1469.5300000000002 152.891 1469.7700000000002 152.852 1470.0400000000002 152.76999999999998 C 1470.3100000000002 152.73 1470.5500000000002 152.69899999999998 1470.8200000000002 152.65999999999997 C 1471.0500000000002 152.65999999999997 1471.3300000000002 152.65999999999997 1471.6000000000001 152.65999999999997 L 1655.94 152.65999999999997 C 1656.17 152.65999999999997 1656.45 152.65999999999997 1656.72 152.65999999999997 C 1656.95 152.69899999999996 1657.23 152.72999999999996 1657.46 152.76999999999998 C 1657.73 152.85199999999998 1657.97 152.891 1658.24 152.969 C 1658.48 153.051 1658.71 153.12099999999998 1658.95 153.238 C 1659.22 153.359 1659.45 153.441 1659.69 153.59 C 1659.88 153.711 1660.1200000000001 153.828 1660.3500000000001 153.98 C 1660.5500000000002 154.102 1660.7800000000002 154.262 1660.9800000000002 154.44899999999998 C 1661.1700000000003 154.60899999999998 1661.3700000000003 154.76999999999998 1661.5200000000002 154.96099999999998 C 1661.7200000000003 155.16 1661.9100000000003 155.35199999999998 1662.0700000000002 155.551 C 1662.2300000000002 155.738 1662.38 155.94099999999997 1662.5400000000002 156.172 C 1662.66 156.371 1662.8100000000002 156.602 1662.9300000000003 156.84 C 1663.0500000000002 157.07 1663.1600000000003 157.30100000000002 1663.2800000000002 157.53900000000002 C 1663.3600000000001 157.77 1663.4400000000003 158.01200000000003 1663.5200000000002 158.281 C 1663.5900000000001 158.52 1663.6700000000003 158.78900000000002 1663.7100000000003 159.02 C 1663.7500000000002 159.30100000000002 1663.7900000000002 159.531 1663.8300000000002 159.80100000000002 C 1663.8700000000001 160.03900000000002 1663.8700000000001 160.30900000000003 1663.8700000000001 160.59 L 1663.8700000000001 227.27 C 1663.8700000000001 227.53900000000002 1663.8700000000001 227.77 1663.8300000000002 228.05100000000002 C 1663.7900000000002 228.281 1663.7500000000002 228.55100000000002 1663.7100000000003 228.828 C 1663.6700000000003 229.059 1663.5900000000004 229.34 1663.5200000000002 229.57 C 1663.4400000000003 229.801 1663.3600000000001 230.078 1663.2800000000002 230.309 C 1663.1600000000003 230.551 1663.0500000000002 230.781 1662.9300000000003 231.02 C 1662.8100000000004 231.25 1662.6600000000003 231.449 1662.5400000000002 231.68 C 1662.38 231.87900000000002 1662.2300000000002 232.109 1662.0700000000002 232.30100000000002 C 1661.91 232.50000000000003 1661.7200000000003 232.699 1661.5200000000002 232.89100000000002 C 1661.3700000000001 233.05100000000002 1661.1700000000003 233.23800000000003 1660.9800000000002 233.39800000000002 C 1660.7800000000002 233.55100000000002 1660.5500000000002 233.711 1660.3500000000001 233.87100000000004 C 1660.1200000000001 234.02000000000004 1659.88 234.14100000000005 1659.69 234.26200000000003 C 1659.45 234.37900000000002 1659.22 234.48800000000003 1658.95 234.60900000000004 C 1658.71 234.69100000000003 1658.48 234.77000000000004 1658.24 234.84000000000003 C 1657.97 234.92200000000003 1657.73 235.00000000000003 1657.46 235.03900000000004 C 1657.23 235.12100000000004 1656.95 235.12100000000004 1656.72 235.16000000000005 C 1656.45 235.19900000000004 1656.17 235.19900000000004 1655.94 235.19900000000004 L 1471.6 235.19900000000004 C 1471.33 235.19900000000004 1471.05 235.19900000000004 1470.82 235.16000000000005 C 1470.55 235.12100000000007 1470.31 235.12100000000007 1470.04 235.03900000000004 C 1469.77 235.00000000000006 1469.53 234.92200000000005 1469.3 234.84000000000003 C 1469.02 234.77000000000004 1468.79 234.69100000000003 1468.55 234.60900000000004 C 1468.32 234.48800000000003 1468.09 234.37900000000005 1467.85 234.26200000000003 C 1467.62 234.14100000000002 1467.3799999999999 234.02000000000004 1467.1899999999998 233.87100000000004 C 1466.9499999999998 233.71100000000004 1466.7599999999998 233.55100000000004 1466.5599999999997 233.39800000000002 C 1466.3699999999997 233.23800000000003 1466.1699999999996 233.05100000000002 1465.9799999999998 232.89100000000002 C 1465.7799999999997 232.699 1465.62 232.50000000000003 1465.4699999999998 232.30100000000002 C 1465.2699999999998 232.109 1465.12 231.87900000000002 1464.9999999999998 231.68 C 1464.8399999999997 231.449 1464.7299999999998 231.25 1464.5699999999997 231.02 C 1464.4499999999998 230.781 1464.3399999999997 230.55100000000002 1464.2599999999998 230.309 C 1464.1399999999999 230.078 1464.0599999999997 229.801 1463.9799999999998 229.57 C 1463.9099999999999 229.34 1463.87 229.059 1463.7899999999997 228.828 C 1463.7499999999998 228.55100000000002 1463.7099999999998 228.281 1463.6699999999998 228.05100000000002 C 1463.6699999999998 227.77 1463.6299999999999 227.53900000000002 1463.6299999999999 227.27 z M 1479.5300000000002 168.52 L 1647.9680000000003 168.52 L 1647.9680000000003 219.3403 L 1479.53 219.3403 Z M 1463.63 21.94920000000002 C 1463.63 21.71880000000002 1463.67 21.44920000000002 1463.67 21.17190000000002 C 1463.71 20.94140000000002 1463.75 20.660200000000017 1463.79 20.429700000000018 C 1463.87 20.160200000000017 1463.9099999999999 19.92190000000002 1463.98 19.648400000000017 C 1464.06 19.410200000000017 1464.14 19.179700000000018 1464.26 18.949200000000015 C 1464.34 18.671900000000015 1464.45 18.441400000000016 1464.57 18.238300000000017 C 1464.73 18.011700000000015 1464.84 17.769500000000015 1465 17.539100000000015 C 1465.12 17.339800000000015 1465.27 17.148400000000017 1465.47 16.910200000000014 C 1465.6200000000001 16.718800000000012 1465.78 16.519500000000015 1465.98 16.371100000000013 C 1466.17 16.17190000000001 1466.3700000000001 15.980500000000013 1466.56 15.820300000000012 C 1466.76 15.660200000000012 1466.95 15.511700000000012 1467.19 15.351600000000012 C 1467.38 15.230500000000012 1467.6200000000001 15.078100000000012 1467.8500000000001 14.960900000000011 C 1468.0900000000001 14.839800000000011 1468.3200000000002 14.730500000000012 1468.5500000000002 14.648400000000011 C 1468.7900000000002 14.53130000000001 1469.0200000000002 14.449200000000012 1469.3000000000002 14.37890000000001 C 1469.5300000000002 14.300800000000011 1469.7700000000002 14.21880000000001 1470.0400000000002 14.179700000000011 C 1470.3100000000002 14.140600000000012 1470.5500000000002 14.101600000000012 1470.8200000000002 14.05860000000001 C 1471.0500000000002 14.019500000000011 1471.3300000000002 14.019500000000011 1471.6000000000001 14.019500000000011 L 1692.6200000000001 14.019500000000011 C 1692.8500000000001 14.019500000000011 1693.1200000000001 14.019500000000011 1693.4 14.05860000000001 C 1693.63 14.10160000000001 1693.91 14.140600000000012 1694.14 14.179700000000011 C 1694.41 14.21880000000001 1694.65 14.300800000000011 1694.92 14.37890000000001 C 1695.16 14.44920000000001 1695.39 14.53130000000001 1695.6200000000001 14.648400000000011 C 1695.9 14.730500000000012 1696.13 14.839800000000011 1696.3300000000002 14.960900000000011 C 1696.5600000000002 15.078100000000012 1696.8000000000002 15.230500000000012 1697.0300000000002 15.351600000000012 C 1697.2300000000002 15.511700000000012 1697.4200000000003 15.660200000000012 1697.6600000000003 15.820300000000012 C 1697.8500000000004 15.980500000000012 1698.0500000000004 16.17190000000001 1698.2000000000003 16.371100000000013 C 1698.4000000000003 16.51950000000001 1698.5900000000004 16.718800000000012 1698.7500000000002 16.910200000000014 C 1698.9100000000003 17.148400000000013 1699.0600000000002 17.339800000000015 1699.2200000000003 17.539100000000015 C 1699.3400000000001 17.769500000000015 1699.4900000000002 18.011700000000015 1699.6100000000004 18.238300000000017 C 1699.7300000000002 18.441400000000016 1699.8400000000004 18.671900000000015 1699.9200000000003 18.949200000000015 C 1700.0400000000002 19.179700000000015 1700.1200000000003 19.410200000000014 1700.2000000000003 19.648400000000017 C 1700.2700000000002 19.921900000000015 1700.3500000000004 20.160200000000017 1700.3900000000003 20.429700000000018 C 1700.4300000000003 20.660200000000017 1700.4700000000003 20.94140000000002 1700.5100000000002 21.17190000000002 C 1700.5500000000002 21.44920000000002 1700.5500000000002 21.71880000000002 1700.5500000000002 21.94920000000002 L 1700.5500000000002 88.62890000000002 C 1700.5500000000002 88.91020000000002 1700.5500000000002 89.17970000000001 1700.5100000000002 89.41020000000002 C 1700.4700000000003 89.69140000000002 1700.4300000000003 89.96090000000002 1700.3900000000003 90.19920000000002 C 1700.3500000000004 90.46880000000002 1700.2700000000004 90.69920000000002 1700.2000000000003 90.94140000000002 C 1700.1200000000003 91.21090000000001 1700.0400000000002 91.44920000000002 1699.9200000000003 91.67970000000001 C 1699.8400000000004 91.91020000000002 1699.7300000000002 92.14840000000001 1699.6100000000004 92.37890000000002 C 1699.4900000000005 92.62110000000001 1699.3400000000004 92.85160000000002 1699.2200000000003 93.05080000000001 C 1699.0600000000002 93.28130000000002 1698.9100000000003 93.4805 1698.7500000000002 93.67190000000001 C 1698.5900000000001 93.9102 1698.4000000000003 94.05860000000001 1698.2000000000003 94.2617 C 1698.0500000000002 94.4492 1697.8500000000004 94.60940000000001 1697.6600000000003 94.80080000000001 C 1697.4200000000003 94.96090000000001 1697.2300000000002 95.12110000000001 1697.0300000000002 95.2305 C 1696.8000000000002 95.3906 1696.5600000000002 95.55080000000001 1696.3300000000002 95.6602 C 1696.13 95.7813 1695.9 95.89840000000001 1695.6200000000001 95.9805 C 1695.39 96.08980000000001 1695.16 96.17190000000001 1694.92 96.25 C 1694.65 96.3281 1694.41 96.3711 1694.14 96.4492 C 1693.91 96.4805 1693.63 96.51950000000001 1693.4 96.5586 C 1693.1200000000001 96.5586 1692.8500000000001 96.6016 1692.6200000000001 96.6016 L 1471.6 96.6016 C 1471.33 96.6016 1471.05 96.5586 1470.82 96.5586 C 1470.55 96.5195 1470.31 96.48049999999999 1470.04 96.4492 C 1469.77 96.3711 1469.53 96.3281 1469.3 96.25 C 1469.02 96.1719 1468.79 96.0898 1468.55 95.9805 C 1468.32 95.89840000000001 1468.09 95.7813 1467.85 95.6602 C 1467.62 95.55080000000001 1467.3799999999999 95.3906 1467.1899999999998 95.2305 C 1466.9499999999998 95.12110000000001 1466.7599999999998 94.96090000000001 1466.5599999999997 94.80080000000001 C 1466.3699999999997 94.60940000000001 1466.1699999999996 94.4492 1465.9799999999998 94.2617 C 1465.7799999999997 94.0586 1465.62 93.9102 1465.4699999999998 93.67190000000001 C 1465.2699999999998 93.4805 1465.12 93.2813 1464.9999999999998 93.05080000000001 C 1464.8399999999997 92.8516 1464.7299999999998 92.62110000000001 1464.5699999999997 92.37890000000002 C 1464.4499999999998 92.14840000000001 1464.3399999999997 91.91020000000002 1464.2599999999998 91.67970000000001 C 1464.1399999999999 91.4492 1464.0599999999997 91.21090000000001 1463.9799999999998 90.94140000000002 C 1463.9099999999999 90.69920000000002 1463.87 90.46880000000002 1463.7899999999997 90.19920000000002 C 1463.7499999999998 89.96090000000002 1463.7099999999998 89.69140000000002 1463.6699999999998 89.41020000000002 C 1463.6699999999998 89.17970000000001 1463.6299999999999 88.91020000000002 1463.6299999999999 88.62890000000002 z M 1479.5300000000002 29.92190000000002 L 1684.6470000000002 29.92190000000002 L 1684.6470000000002 80.6992 L 1479.53 80.6992 Z" stroke-linecap="round" />
</g>
<g transform="matrix(0.13 0 0 -0.13 287.8 249.97)" id="xM3JYtiA5dPZXTFhsNs-_"  >
<path style="stroke: none; stroke-width: 1; stroke-dasharray: none; stroke-linecap: butt; stroke-dashoffset: 0; stroke-linejoin: miter; stroke-miterlimit: 4; fill: rgb(234,170,0); fill-rule: evenodd; opacity: 1;" vector-effect="non-scaling-stroke"  transform=" translate(-1891.93, -188.9)" d="M 1830.59 197.109 L 2004.61 16.4492 C 2004.9599999999998 16.050800000000002 2005.3899999999999 15.7383 2005.82 15.4297 C 2006.25 15.1211 2006.72 14.8789 2007.1899999999998 14.6484 C 2007.6999999999998 14.449200000000001 2008.1999999999998 14.3008 2008.7099999999998 14.1797 C 2009.2599999999998 14.0586 2009.7699999999998 14.0195 2010.3099999999997 14.0195 L 2027.9299999999996 14.0195 C 2028.1999999999996 14.0195 2028.4399999999996 14.0195 2028.7099999999996 14.0586 C 2028.9799999999996 14.1016 2029.2199999999996 14.140600000000001 2029.4899999999996 14.1797 C 2029.7299999999996 14.2188 2029.9999999999995 14.3008 2030.2299999999996 14.3789 C 2030.5099999999995 14.4492 2030.7399999999996 14.5313 2030.9799999999996 14.6484 C 2031.2099999999996 14.730500000000001 2031.4499999999996 14.8398 2031.6799999999996 14.9609 C 2031.9099999999996 15.078100000000001 2032.1499999999996 15.230500000000001 2032.3399999999997 15.351600000000001 C 2032.5799999999997 15.511700000000001 2032.7699999999998 15.660200000000001 2032.9699999999998 15.820300000000001 C 2033.1599999999999 15.980500000000001 2033.36 16.1719 2033.5499999999997 16.371100000000002 C 2033.7499999999998 16.5195 2033.9099999999996 16.7188 2034.0599999999997 16.910200000000003 C 2034.2199999999998 17.148400000000002 2034.3799999999997 17.339800000000004 2034.5299999999997 17.539100000000005 C 2034.6899999999998 17.769500000000004 2034.7999999999997 18.011700000000005 2034.9199999999998 18.238300000000006 C 2035.08 18.441400000000005 2035.1599999999999 18.671900000000004 2035.2699999999998 18.949200000000005 C 2035.3499999999997 19.179700000000004 2035.4699999999998 19.410200000000003 2035.5499999999997 19.648400000000006 C 2035.6199999999997 19.921900000000004 2035.6599999999996 20.160200000000007 2035.7399999999998 20.429700000000008 C 2035.7799999999997 20.660200000000007 2035.8199999999997 20.94140000000001 2035.8199999999997 21.171900000000008 C 2035.8599999999997 21.44920000000001 2035.8599999999997 21.71880000000001 2035.8599999999997 21.94920000000001 L 2035.8599999999997 355.859 C 2035.8599999999997 356.12899999999996 2035.8599999999997 356.40999999999997 2035.8199999999997 356.64099999999996 C 2035.8199999999997 356.90999999999997 2035.7799999999997 357.14799999999997 2035.7399999999998 357.42199999999997 C 2035.6599999999999 357.65999999999997 2035.62 357.92999999999995 2035.5499999999997 358.15999999999997 C 2035.4699999999998 358.441 2035.3499999999997 358.67199999999997 2035.2699999999998 358.90999999999997 C 2035.1599999999999 359.14099999999996 2035.0799999999997 359.37899999999996 2034.9199999999998 359.609 C 2034.8 359.84 2034.6899999999998 360.078 2034.5299999999997 360.27 C 2034.3799999999997 360.512 2034.2199999999998 360.69899999999996 2034.0599999999997 360.89799999999997 C 2033.9099999999996 361.09 2033.7499999999998 361.289 2033.5499999999997 361.47999999999996 C 2033.3599999999997 361.67999999999995 2033.1599999999996 361.84 2032.9699999999998 361.98799999999994 C 2032.7699999999998 362.1909999999999 2032.5799999999997 362.3399999999999 2032.3399999999997 362.46099999999996 C 2032.1499999999996 362.621 2031.9099999999996 362.72999999999996 2031.6799999999996 362.852 C 2031.4499999999996 363.012 2031.2099999999996 363.09 2030.9799999999996 363.19899999999996 C 2030.7399999999996 363.31999999999994 2030.5099999999995 363.39799999999997 2030.2299999999996 363.47999999999996 C 2029.9999999999995 363.551 2029.7299999999996 363.59 2029.4899999999996 363.67199999999997 C 2029.2199999999996 363.71099999999996 2028.9799999999996 363.74999999999994 2028.7099999999996 363.74999999999994 C 2028.4399999999996 363.78899999999993 2028.1999999999996 363.78899999999993 2027.9299999999996 363.78899999999993 L 1961.2499999999995 363.78899999999993 C 1960.9799999999996 363.78899999999993 1960.7399999999996 363.78899999999993 1960.4699999999996 363.74999999999994 C 1960.1999999999996 363.74999999999994 1959.9599999999996 363.71099999999996 1959.6899999999996 363.67199999999997 C 1959.4499999999996 363.59 1959.1799999999996 363.551 1958.9499999999996 363.47999999999996 C 1958.7099999999996 363.39799999999997 1958.4399999999996 363.31999999999994 1958.1999999999996 363.19899999999996 C 1957.9699999999996 363.09 1957.7299999999996 363.01199999999994 1957.4999999999995 362.852 C 1957.2699999999995 362.72999999999996 1957.0699999999995 362.621 1956.8399999999995 362.46099999999996 C 1956.6399999999994 362.34 1956.4099999999994 362.191 1956.2099999999994 361.98799999999994 C 1956.0199999999993 361.8399999999999 1955.8199999999993 361.67999999999995 1955.6199999999994 361.47999999999996 C 1955.4699999999993 361.289 1955.2699999999995 361.09 1955.1199999999994 360.89799999999997 C 1954.9599999999994 360.69899999999996 1954.7999999999995 360.51199999999994 1954.6499999999994 360.27 C 1954.4899999999993 360.078 1954.3799999999994 359.84 1954.2599999999993 359.609 C 1954.1399999999994 359.37899999999996 1954.0199999999993 359.14099999999996 1953.9099999999994 358.90999999999997 C 1953.8299999999995 358.67199999999997 1953.7499999999993 358.441 1953.6699999999994 358.15999999999997 C 1953.5899999999995 357.92999999999995 1953.5199999999993 357.65999999999997 1953.4799999999993 357.42199999999997 C 1953.3999999999994 357.14799999999997 1953.3599999999994 356.90999999999997 1953.3599999999994 356.64099999999996 C 1953.3199999999995 356.40999999999997 1953.3199999999995 356.12899999999996 1953.3199999999995 355.859 L 1953.3199999999995 188.48 L 1782.5799999999995 361.44899999999996 C 1782.1899999999994 361.84 1781.7999999999995 362.14799999999997 1781.3699999999994 362.46099999999996 C 1780.9399999999994 362.72999999999996 1780.4699999999993 363.01199999999994 1779.9599999999994 363.19899999999996 C 1779.4899999999993 363.39799999999997 1778.9799999999993 363.55099999999993 1778.4799999999993 363.67199999999997 C 1777.9699999999993 363.74999999999994 1777.4199999999994 363.789 1776.9099999999994 363.789 L 1755.9399999999994 363.789 C 1755.6999999999994 363.789 1755.4299999999994 363.789 1755.1999999999994 363.75 C 1754.9199999999994 363.75 1754.6499999999994 363.711 1754.4099999999994 363.672 C 1754.1399999999994 363.59000000000003 1753.9099999999994 363.55100000000004 1753.6299999999994 363.48 C 1753.3999999999994 363.398 1753.1599999999994 363.32 1752.9299999999994 363.199 C 1752.6999999999994 363.09000000000003 1752.4599999999994 363.012 1752.2299999999993 362.85200000000003 C 1751.9899999999993 362.73 1751.7599999999993 362.62100000000004 1751.5599999999993 362.461 C 1751.3299999999992 362.34000000000003 1751.1299999999992 362.19100000000003 1750.9399999999994 361.988 C 1750.6999999999994 361.84 1750.5099999999993 361.68 1750.3499999999995 361.48 C 1750.1599999999994 361.28900000000004 1749.9999999999995 361.09000000000003 1749.7999999999995 360.898 C 1749.6499999999994 360.699 1749.4899999999996 360.512 1749.3399999999995 360.27000000000004 C 1749.2199999999996 360.07800000000003 1749.0599999999995 359.84000000000003 1748.9499999999994 359.60900000000004 C 1748.8299999999995 359.379 1748.7099999999994 359.141 1748.6299999999994 358.91 C 1748.5199999999995 358.672 1748.4399999999994 358.44100000000003 1748.3599999999994 358.16 C 1748.2799999999995 357.93 1748.1999999999994 357.66 1748.1599999999994 357.422 C 1748.1199999999994 357.148 1748.0899999999995 356.91 1748.0499999999995 356.641 C 1748.0499999999995 356.41 1748.0099999999995 356.129 1748.0099999999995 355.85900000000004 L 1748.0099999999995 21.9492 C 1748.0099999999995 21.7188 1748.0499999999995 21.4492 1748.0499999999995 21.1719 C 1748.0899999999995 20.9414 1748.1199999999994 20.6602 1748.1599999999994 20.4297 C 1748.1999999999994 20.1602 1748.2799999999993 19.9219 1748.3599999999994 19.6484 C 1748.4399999999994 19.4102 1748.5199999999995 19.1797 1748.6299999999994 18.949199999999998 C 1748.7099999999994 18.671899999999997 1748.8299999999995 18.441399999999998 1748.9499999999994 18.2383 C 1749.0599999999993 18.011699999999998 1749.2199999999993 17.769499999999997 1749.3399999999995 17.539099999999998 C 1749.4899999999996 17.339799999999997 1749.6499999999994 17.1484 1749.7999999999995 16.910199999999996 C 1749.9999999999995 16.718799999999995 1750.1599999999994 16.519499999999997 1750.3499999999995 16.371099999999995 C 1750.5099999999995 16.171899999999994 1750.6999999999994 15.980499999999996 1750.9399999999994 15.820299999999994 C 1751.1299999999994 15.660199999999994 1751.3299999999995 15.511699999999994 1751.5599999999993 15.351599999999994 C 1751.7599999999993 15.230499999999994 1751.9899999999993 15.078099999999994 1752.2299999999993 14.960899999999993 C 1752.4599999999994 14.839799999999993 1752.6999999999994 14.730499999999994 1752.9299999999994 14.648399999999993 C 1753.1599999999994 14.531299999999993 1753.3999999999994 14.449199999999994 1753.6299999999994 14.378899999999993 C 1753.9099999999994 14.300799999999994 1754.1399999999994 14.218799999999993 1754.4099999999994 14.179699999999993 C 1754.6499999999994 14.140599999999994 1754.9199999999994 14.101599999999994 1755.1999999999994 14.058599999999993 C 1755.4299999999994 14.019499999999994 1755.6999999999994 14.019499999999994 1755.9399999999994 14.019499999999994 L 1822.6599999999994 14.019499999999994 C 1822.8899999999994 14.019499999999994 1823.1599999999994 14.019499999999994 1823.4399999999994 14.058599999999993 C 1823.6699999999994 14.101599999999992 1823.9499999999994 14.140599999999994 1824.1799999999994 14.179699999999993 C 1824.4499999999994 14.218799999999993 1824.6899999999994 14.300799999999994 1824.9599999999994 14.378899999999993 C 1825.1999999999994 14.449199999999992 1825.4299999999994 14.531299999999993 1825.6599999999994 14.648399999999993 C 1825.9399999999994 14.730499999999994 1826.1699999999994 14.839799999999993 1826.3699999999994 14.960899999999993 C 1826.5999999999995 15.078099999999994 1826.8399999999995 15.230499999999994 1827.0299999999995 15.351599999999994 C 1827.2699999999995 15.511699999999994 1827.4599999999996 15.660199999999994 1827.6999999999996 15.820299999999994 C 1827.8899999999996 15.980499999999994 1828.0899999999997 16.171899999999994 1828.2399999999996 16.371099999999995 C 1828.4399999999996 16.519499999999994 1828.6299999999997 16.718799999999995 1828.7899999999995 16.910199999999996 C 1828.9499999999996 17.148399999999995 1829.0999999999995 17.339799999999997 1829.2599999999995 17.539099999999998 C 1829.3799999999994 17.769499999999997 1829.5299999999995 18.011699999999998 1829.6499999999996 18.2383 C 1829.7699999999995 18.441399999999998 1829.8799999999997 18.671899999999997 1829.9599999999996 18.949199999999998 C 1830.0799999999995 19.179699999999997 1830.1599999999996 19.410199999999996 1830.2299999999996 19.6484 C 1830.3099999999995 19.921899999999997 1830.3899999999996 20.1602 1830.4299999999996 20.4297 C 1830.4699999999996 20.6602 1830.5099999999995 20.9414 1830.5499999999995 21.1719 C 1830.5499999999995 21.4492 1830.5899999999995 21.7188 1830.5899999999995 21.9492 z M 2013.67 29.9219 L 1828.36 222.301 C 1828.01 222.66 1827.62 223.012 1827.1899999999998 223.28099999999998 C 1826.7599999999998 223.58999999999997 1826.2899999999997 223.87099999999998 1825.82 224.05899999999997 C 1825.35 224.26199999999997 1824.84 224.40999999999997 1824.34 224.53099999999998 C 1823.83 224.64799999999997 1823.32 224.73 1822.77 224.73 C 1822.27 224.73 1821.76 224.691 1821.25 224.60899999999998 C 1820.74 224.48799999999997 1820.23 224.379 1819.73 224.17999999999998 C 1819.26 223.98 1818.79 223.74999999999997 1818.3600000000001 223.48 C 1817.93 223.16 1817.5000000000002 222.852 1817.15 222.5 C 1816.76 222.148 1816.41 221.719 1816.0900000000001 221.289 C 1815.7800000000002 220.85899999999998 1815.5500000000002 220.391 1815.3500000000001 219.879 C 1815.1200000000001 219.41 1814.96 218.91 1814.8400000000001 218.35899999999998 C 1814.7700000000002 217.85199999999998 1814.69 217.301 1814.69 216.801 L 1814.69 29.9219 L 1763.91 29.9219 L 1763.91 347.93 L 1773.5900000000001 347.93 L 1955.5900000000001 163.55100000000002 C 1955.9800000000002 163.199 1956.3700000000001 162.852 1956.8000000000002 162.578 C 1957.2300000000002 162.27 1957.7000000000003 162.031 1958.16 161.84 C 1958.63 161.641 1959.14 161.48 1959.65 161.371 C 1960.16 161.25 1960.66 161.211 1961.21 161.211 C 1961.72 161.211 1962.23 161.25 1962.73 161.371 C 1963.28 161.449 1963.75 161.602 1964.26 161.80100000000002 C 1964.73 161.98800000000003 1965.2 162.23000000000002 1965.62 162.53900000000002 C 1966.05 162.80900000000003 1966.4499999999998 163.121 1966.84 163.52 C 1967.1899999999998 163.871 1967.54 164.262 1967.85 164.73000000000002 C 1968.12 165.16000000000003 1968.36 165.59000000000003 1968.59 166.09000000000003 C 1968.79 166.55900000000003 1968.9499999999998 167.07000000000002 1969.02 167.57800000000003 C 1969.1399999999999 168.09000000000003 1969.18 168.62900000000002 1969.18 169.14100000000002 L 1969.18 347.93 L 2020 347.93 L 2020 29.9219 Z" stroke-linecap="round" />
</g>
<g transform="matrix(0.13 0 0 -0.13 333.08 250.06)" id="f20zG5MkHcjrMYn0-ljeS"  >
<path style="stroke: none; stroke-width: 1; stroke-dasharray: none; stroke-linecap: butt; stroke-dashoffset: 0; stroke-linejoin: miter; stroke-miterlimit: 4; fill: rgb(234,170,0); fill-rule: evenodd; opacity: 1;" vector-effect="non-scaling-stroke"  transform=" translate(-2231.56, -188.2)" d="M 2374.65 330.43 C 2374.53 330.551 2374.4500000000003 330.621 2374.34 330.699 C 2341.29 356.25 2304.1000000000004 369.059 2262.77 369.059 C 2212.93 369.059 2170.35 351.37100000000004 2134.96 315.98 C 2099.61 280.62100000000004 2081.91 238.012 2081.91 188.199 C 2081.91 138.359 2099.6099999999997 95.78130000000002 2134.96 60.42970000000001 C 2170.35 25.039100000000012 2212.93 7.3398400000000095 2262.77 7.3398400000000095 C 2306.02 7.3398400000000095 2344.53 21.289100000000012 2378.32 49.17970000000001 C 2378.52 49.33980000000001 2378.71 49.53130000000001 2378.9100000000003 49.73050000000001 C 2379.1000000000004 49.878900000000016 2379.26 50.07810000000001 2379.4100000000003 50.269500000000015 C 2379.57 50.51170000000001 2379.7300000000005 50.69920000000001 2379.88 50.89840000000002 C 2380.04 51.128900000000016 2380.1600000000003 51.37110000000002 2380.27 51.60160000000002 C 2380.39 51.80080000000002 2380.5099999999998 52.031300000000016 2380.62 52.30080000000002 C 2380.7 52.53910000000002 2380.8199999999997 52.769500000000015 2380.8599999999997 53.01170000000002 C 2380.9399999999996 53.281300000000016 2381.0199999999995 53.51950000000002 2381.0499999999997 53.78910000000002 C 2381.1299999999997 54.01950000000002 2381.1299999999997 54.30080000000002 2381.1699999999996 54.57030000000002 C 2381.2099999999996 54.80080000000002 2381.2099999999996 55.07810000000002 2381.2099999999996 55.30860000000002 C 2381.2099999999996 55.58980000000002 2381.2099999999996 55.85940000000002 2381.1699999999996 56.08980000000002 C 2381.1299999999997 56.37110000000002 2381.0899999999997 56.64060000000002 2381.0499999999997 56.878900000000016 C 2381.0199999999995 57.14840000000002 2380.9399999999996 57.378900000000016 2380.8599999999997 57.62110000000001 C 2380.7799999999997 57.89060000000001 2380.7 58.12110000000001 2380.5899999999997 58.359400000000015 C 2380.5099999999998 58.58980000000002 2380.39 58.82810000000001 2380.2699999999995 59.05860000000001 C 2380.1599999999994 59.30080000000001 2379.9999999999995 59.531300000000016 2379.8399999999997 59.73050000000001 C 2379.7299999999996 59.96090000000002 2379.5699999999997 60.16020000000001 2379.3799999999997 60.35160000000001 C 2379.3399999999997 60.42970000000001 2379.2999999999997 60.46880000000001 2379.2599999999998 60.55080000000001 L 2336.37 109.60900000000001 C 2336.21 109.77000000000001 2336.0499999999997 109.96100000000001 2335.8599999999997 110.12100000000001 C 2335.7 110.30900000000001 2335.5099999999998 110.46900000000001 2335.3099999999995 110.62100000000001 C 2335.1199999999994 110.781 2334.9199999999996 110.89800000000001 2334.6899999999996 111.05100000000002 C 2334.49 111.17200000000001 2334.2599999999998 111.28900000000002 2334.0599999999995 111.41000000000001 C 2333.8299999999995 111.52000000000001 2333.5899999999997 111.641 2333.3599999999997 111.71900000000001 C 2333.16 111.84 2332.93 111.91000000000001 2332.66 111.98800000000001 C 2332.42 112.03100000000002 2332.19 112.10900000000001 2331.95 112.14800000000001 C 2331.72 112.19100000000002 2331.45 112.23 2331.21 112.27000000000001 C 2330.98 112.30100000000002 2330.7 112.30100000000002 2330.4700000000003 112.30100000000002 C 2330.2300000000005 112.30100000000002 2329.96 112.30100000000002 2329.7300000000005 112.27000000000001 C 2329.4900000000007 112.27000000000001 2329.2200000000003 112.23 2328.9800000000005 112.19100000000002 C 2328.7500000000005 112.14800000000001 2328.5200000000004 112.07000000000002 2328.2800000000007 112.03100000000002 C 2328.0100000000007 111.94900000000003 2327.7700000000004 111.87900000000002 2327.540000000001 111.80100000000002 C 2327.340000000001 111.68000000000002 2327.110000000001 111.60200000000002 2326.880000000001 111.48000000000002 C 2326.6400000000012 111.37100000000002 2326.450000000001 111.25000000000001 2326.210000000001 111.12900000000002 C 2326.020000000001 110.98000000000002 2325.820000000001 110.85900000000002 2325.620000000001 110.69900000000001 C 2311.4500000000007 99.96090000000001 2295.270000000001 93.75000000000001 2277.190000000001 92.07030000000002 C 2259.690000000001 90.46880000000002 2242.970000000001 93.28130000000002 2226.950000000001 100.46900000000002 C 2190.3900000000012 116.94900000000003 2172.110000000001 146.211 2172.110000000001 188.199 C 2172.110000000001 228.281 2189.570000000001 256.80100000000004 2224.530000000001 273.711 C 2239.960000000001 281.129 2256.2900000000013 284.488 2273.520000000001 283.711 C 2291.370000000001 282.891 2307.620000000001 277.73 2322.270000000001 268.238 C 2322.500000000001 268.09 2322.7000000000007 267.969 2322.890000000001 267.852 C 2323.0900000000006 267.77 2323.3200000000006 267.65999999999997 2323.5500000000006 267.578 C 2323.7500000000005 267.46099999999996 2323.9800000000005 267.37899999999996 2324.2200000000007 267.301 C 2324.4100000000008 267.27 2324.6500000000005 267.191 2324.8800000000006 267.14799999999997 C 2325.1200000000003 267.07 2325.3500000000004 267.03099999999995 2325.5900000000006 267.03099999999995 C 2325.8200000000006 266.98799999999994 2326.0500000000006 266.94899999999996 2326.2900000000004 266.94899999999996 C 2326.5200000000004 266.94899999999996 2326.76 266.94899999999996 2326.9900000000002 266.94899999999996 C 2327.23 266.98799999999994 2327.46 266.98799999999994 2327.7000000000003 267.03099999999995 C 2327.9300000000003 267.06999999999994 2328.1600000000003 267.1089999999999 2328.4 267.14799999999997 C 2328.63 267.22999999999996 2328.87 267.27 2329.1 267.34 C 2329.3399999999997 267.42199999999997 2329.5299999999997 267.5 2329.77 267.621 C 2329.96 267.69899999999996 2330.2 267.80899999999997 2330.39 267.93 C 2330.5899999999997 268.051 2330.8199999999997 268.16 2331.02 268.281 C 2331.21 268.44100000000003 2331.41 268.551 2331.56 268.711 C 2331.7599999999998 268.87100000000004 2331.95 269.02000000000004 2332.11 269.18 C 2332.27 269.34000000000003 2332.42 269.531 2332.58 269.69100000000003 L 2375.47 319.21900000000005 C 2375.8199999999997 319.648 2376.0899999999997 320.03900000000004 2376.37 320.51200000000006 C 2376.64 320.9800000000001 2376.8399999999997 321.44900000000007 2376.99 321.9100000000001 C 2377.1499999999996 322.4220000000001 2377.27 322.93000000000006 2377.3399999999997 323.4410000000001 C 2377.4199999999996 323.94900000000007 2377.4199999999996 324.4880000000001 2377.3799999999997 325.0000000000001 C 2377.3399999999997 325.5120000000001 2377.2699999999995 326.0200000000001 2377.1099999999997 326.5200000000001 C 2376.99 327.0310000000001 2376.7999999999997 327.5390000000001 2376.5599999999995 328.0120000000001 C 2376.3299999999995 328.4410000000001 2376.0499999999993 328.91000000000014 2375.7399999999993 329.3010000000001 C 2375.3899999999994 329.7300000000001 2375.0399999999995 330.0780000000001 2374.649999999999 330.4300000000001 z M 2357.85 323.121 C 2329.41 343.15999999999997 2297.7 353.15999999999997 2262.77 353.15999999999997 C 2217.3 353.15999999999997 2178.48 337.03099999999995 2146.21 304.77 C 2113.95 272.5 2097.81 233.62899999999996 2097.81 188.19899999999998 C 2097.81 142.76999999999998 2113.95 103.90999999999998 2146.21 71.64059999999998 C 2178.48 39.37889999999998 2217.3 23.23829999999998 2262.77 23.23829999999998 C 2299.49 23.23829999999998 2332.54 34.30079999999998 2361.8 56.371099999999984 L 2329.14 93.75 C 2314.06 83.8281 2297.23 77.9688 2278.6299999999997 76.2891 C 2258.3599999999997 74.4102 2238.9799999999996 77.6602 2220.43 86.01950000000001 C 2201.29 94.64840000000001 2186.0499999999997 107.42200000000001 2174.69 124.41000000000001 C 2162.38 142.852 2156.21 164.102 2156.21 188.199 C 2156.21 211.28900000000002 2162.07 231.80100000000002 2173.79 249.77 C 2184.61 266.32800000000003 2199.22 279.10200000000003 2217.62 288.012 C 2235.43 296.602 2254.3399999999997 300.469 2274.2599999999998 299.57 C 2292.58 298.711 2309.49 293.90999999999997 2324.9599999999996 285.15999999999997 z" stroke-linecap="round" />
</g>
<g transform="matrix(0.13 0 0 -0.13 364.68 249.94)" id="F7nWI7xNcurb4W9nM44EE"  >
<path style="stroke: none; stroke-width: 1; stroke-dasharray: none; stroke-linecap: butt; stroke-dashoffset: 0; stroke-linejoin: miter; stroke-miterlimit: 4; fill: rgb(234,170,0); fill-rule: evenodd; opacity: 1;" vector-effect="non-scaling-stroke"  transform=" translate(-2468.53, -189.14)" d="M 2427.27 355.859 L 2427.27 22.4609 C 2427.27 22.191399999999998 2427.27 21.9102 2427.3 21.6797 C 2427.3 21.4102 2427.34 21.1289 2427.42 20.8984 C 2427.46 20.6211 2427.54 20.3906 2427.58 20.1602 C 2427.66 19.878899999999998 2427.77 19.6484 2427.85 19.4102 C 2427.97 19.1797 2428.0899999999997 18.9492 2428.2 18.7109 C 2428.3199999999997 18.4805 2428.4399999999996 18.2383 2428.5899999999997 18.0508 C 2428.7499999999995 17.8086 2428.91 17.6211 2429.0599999999995 17.421899999999997 C 2429.2199999999993 17.191399999999998 2429.4099999999994 17.031299999999998 2429.5699999999997 16.839799999999997 C 2429.7699999999995 16.640599999999996 2429.9599999999996 16.480499999999996 2430.16 16.289099999999998 C 2430.35 16.128899999999998 2430.5899999999997 15.980499999999997 2430.7799999999997 15.859399999999997 C 2431.0199999999995 15.699199999999998 2431.2099999999996 15.550799999999997 2431.45 15.429699999999997 C 2431.68 15.308599999999997 2431.91 15.199199999999998 2432.1499999999996 15.121099999999997 C 2432.3799999999997 14.999999999999996 2432.66 14.921899999999997 2432.8899999999994 14.839799999999997 C 2433.1199999999994 14.769499999999997 2433.3999999999996 14.691399999999996 2433.629999999999 14.648399999999997 C 2433.9099999999994 14.609399999999997 2434.1399999999994 14.570299999999998 2434.4099999999994 14.531299999999996 C 2434.6899999999996 14.531299999999996 2434.9199999999996 14.488299999999997 2435.1999999999994 14.488299999999997 L 2501.879999999999 14.488299999999997 C 2502.149999999999 14.488299999999997 2502.379999999999 14.531299999999996 2502.6599999999994 14.531299999999996 C 2502.9299999999994 14.570299999999996 2503.1599999999994 14.609399999999996 2503.4399999999996 14.648399999999997 C 2503.6699999999996 14.691399999999996 2503.95 14.769499999999997 2504.1799999999994 14.839799999999997 C 2504.4499999999994 14.921899999999997 2504.6899999999996 14.999999999999996 2504.919999999999 15.121099999999997 C 2505.159999999999 15.199199999999996 2505.389999999999 15.308599999999997 2505.619999999999 15.429699999999997 C 2505.8599999999988 15.550799999999997 2506.049999999999 15.699199999999998 2506.289999999999 15.859399999999997 C 2506.519999999999 15.980499999999997 2506.719999999999 16.128899999999998 2506.909999999999 16.289099999999998 C 2507.1099999999988 16.4805 2507.299999999999 16.6406 2507.499999999999 16.839799999999997 C 2507.699999999999 17.031299999999998 2507.849999999999 17.191399999999998 2508.0099999999993 17.421899999999997 C 2508.1599999999994 17.6211 2508.3199999999993 17.8086 2508.479999999999 18.0508 C 2508.629999999999 18.2383 2508.749999999999 18.4805 2508.869999999999 18.7109 C 2508.979999999999 18.949199999999998 2509.099999999999 19.1797 2509.219999999999 19.4102 C 2509.299999999999 19.6484 2509.409999999999 19.878899999999998 2509.489999999999 20.1602 C 2509.569999999999 20.3906 2509.6099999999988 20.6211 2509.6899999999987 20.8984 C 2509.7299999999987 21.128899999999998 2509.7699999999986 21.4102 2509.7699999999986 21.6797 C 2509.799999999999 21.9102 2509.799999999999 22.1914 2509.799999999999 22.4609 L 2509.799999999999 355.859 C 2509.799999999999 356.12899999999996 2509.799999999999 356.40999999999997 2509.7699999999986 356.64099999999996 C 2509.7699999999986 356.90999999999997 2509.7299999999987 357.14799999999997 2509.6899999999987 357.42199999999997 C 2509.6099999999988 357.65999999999997 2509.569999999999 357.92999999999995 2509.489999999999 358.15999999999997 C 2509.409999999999 358.441 2509.299999999999 358.67199999999997 2509.219999999999 358.90999999999997 C 2509.099999999999 359.14099999999996 2508.979999999999 359.37899999999996 2508.869999999999 359.609 C 2508.749999999999 359.84 2508.629999999999 360.078 2508.479999999999 360.27 C 2508.3199999999993 360.512 2508.159999999999 360.69899999999996 2508.0099999999993 360.89799999999997 C 2507.8499999999995 361.09 2507.6999999999994 361.289 2507.499999999999 361.47999999999996 C 2507.2999999999993 361.67999999999995 2507.109999999999 361.84 2506.909999999999 361.98799999999994 C 2506.719999999999 362.1909999999999 2506.519999999999 362.3399999999999 2506.289999999999 362.46099999999996 C 2506.0499999999993 362.621 2505.859999999999 362.72999999999996 2505.619999999999 362.852 C 2505.389999999999 363.012 2505.159999999999 363.09 2504.919999999999 363.19899999999996 C 2504.689999999999 363.31999999999994 2504.4499999999994 363.39799999999997 2504.1799999999994 363.47999999999996 C 2503.9499999999994 363.551 2503.669999999999 363.59 2503.4399999999996 363.67199999999997 C 2503.1599999999994 363.71099999999996 2502.9299999999994 363.74999999999994 2502.6599999999994 363.789 C 2502.379999999999 363.789 2502.149999999999 363.789 2501.879999999999 363.789 L 2435.1999999999994 363.789 C 2434.919999999999 363.789 2434.689999999999 363.789 2434.4099999999994 363.789 C 2434.1399999999994 363.75 2433.9099999999994 363.711 2433.629999999999 363.67199999999997 C 2433.399999999999 363.59 2433.119999999999 363.551 2432.8899999999994 363.47999999999996 C 2432.6599999999994 363.39799999999997 2432.379999999999 363.31999999999994 2432.1499999999996 363.19899999999996 C 2431.91 363.09 2431.68 363.01199999999994 2431.45 362.852 C 2431.21 362.72999999999996 2431.02 362.621 2430.7799999999997 362.46099999999996 C 2430.5899999999997 362.34 2430.35 362.191 2430.16 361.98799999999994 C 2429.96 361.8399999999999 2429.77 361.67999999999995 2429.5699999999997 361.47999999999996 C 2429.41 361.289 2429.22 361.09 2429.0599999999995 360.89799999999997 C 2428.9099999999994 360.69899999999996 2428.7499999999995 360.51199999999994 2428.5899999999997 360.27 C 2428.4399999999996 360.078 2428.3199999999997 359.84 2428.2 359.609 C 2428.0899999999997 359.37899999999996 2427.97 359.14099999999996 2427.85 358.90999999999997 C 2427.77 358.67199999999997 2427.66 358.441 2427.58 358.15999999999997 C 2427.54 357.92999999999995 2427.46 357.65999999999997 2427.42 357.42199999999997 C 2427.34 357.14799999999997 2427.3 356.90999999999997 2427.3 356.64099999999996 C 2427.27 356.40999999999997 2427.27 356.12899999999996 2427.27 355.859 z M 2443.12 347.93 L 2493.9481 347.93 L 2493.9481 30.391 L 2443.12 30.391 Z" stroke-linecap="round" />
</g>
<g transform="matrix(0.13 0 0 -0.13 396.62 249.94)" id="dzzL5qTkFJXiOCF00mKeH"  >
<path style="stroke: none; stroke-width: 1; stroke-dasharray: none; stroke-linecap: butt; stroke-dashoffset: 0; stroke-linejoin: miter; stroke-miterlimit: 4; fill: rgb(234,170,0); fill-rule: evenodd; opacity: 1;" vector-effect="non-scaling-stroke"  transform=" translate(-2708.13, -189.16)" d="M 2835.94 316.949 C 2800.55 352.301 2757.97 370 2708.12 370 C 2658.3199999999997 370 2615.7 352.301 2580.35 316.949 C 2544.96 281.559 2527.27 238.98000000000002 2527.27 189.14100000000002 C 2527.27 139.34000000000003 2544.96 96.71880000000002 2580.35 61.37110000000001 C 2615.7 25.980500000000013 2658.3199999999997 8.320310000000013 2708.12 8.320310000000013 C 2757.97 8.320310000000013 2800.5499999999997 25.980500000000013 2835.94 61.37110000000001 C 2871.29 96.71880000000002 2888.98 139.34000000000003 2888.98 189.14100000000002 C 2888.98 238.98000000000002 2871.29 281.559 2835.94 316.949 z M 2591.56 305.699 C 2623.83 337.969 2662.7 354.141 2708.12 354.141 C 2753.5499999999997 354.141 2792.42 337.969 2824.69 305.699 C 2856.9500000000003 273.44100000000003 2873.09 234.609 2873.09 189.14100000000002 C 2873.09 143.711 2856.9500000000003 104.84000000000002 2824.69 72.57810000000002 C 2792.42 40.30860000000002 2753.55 24.179700000000018 2708.12 24.179700000000018 C 2662.7 24.179700000000018 2623.83 40.30860000000002 2591.56 72.57810000000002 C 2559.2999999999997 104.84000000000002 2543.16 143.711 2543.16 189.14100000000002 C 2543.16 234.60900000000004 2559.2999999999997 273.44100000000003 2591.56 305.699 z M 2787.5 268.551 C 2765.59 290.469 2739.14 301.40999999999997 2708.12 301.40999999999997 C 2677.1099999999997 301.40999999999997 2650.66 290.469 2628.75 268.551 C 2606.84 246.641 2595.86 220.16 2595.86 189.141 C 2595.86 158.16 2606.84 131.68 2628.75 109.77 C 2650.66 87.85159999999999 2677.11 76.9102 2708.12 76.9102 C 2739.14 76.9102 2765.5899999999997 87.8516 2787.5 109.77000000000001 C 2809.41 131.68 2820.39 158.16000000000003 2820.39 189.14100000000002 C 2820.39 220.16000000000003 2809.41 246.64100000000002 2787.5 268.55100000000004 z M 2639.96 257.301 C 2658.79 276.12899999999996 2681.52 285.551 2708.12 285.551 C 2734.77 285.551 2757.46 276.12899999999996 2776.29 257.301 C 2795.12 238.51999999999998 2804.49 215.78099999999998 2804.49 189.141 C 2804.49 162.539 2795.12 139.801 2776.29 121.02 C 2757.46 102.191 2734.77 92.7695 2708.12 92.7695 C 2681.48 92.7695 2658.79 102.19099999999999 2639.96 121.02 C 2621.17 139.801 2611.76 162.539 2611.76 189.141 C 2611.76 215.781 2621.17 238.51999999999998 2639.96 257.301 z" stroke-linecap="round" />
</g>
<g transform="matrix(0.13 0 0 -0.13 437.24 250.35)" id="fcn7pzN3YzpFF-B35c1ey"  >
<path style="stroke: none; stroke-width: 1; stroke-dasharray: none; stroke-linecap: butt; stroke-dashoffset: 0; stroke-linejoin: miter; stroke-miterlimit: 4; fill: rgb(234,170,0); fill-rule: evenodd; opacity: 1;" vector-effect="non-scaling-stroke"  transform=" translate(-3012.73, -186.05)" d="M 3134.1 142.699 C 3133.79 143.55100000000002 3133.63 144.41000000000003 3133.63 145.352 L 3133.63 347.93 L 3082.85 347.93 L 3082.85 147.578 C 3083.16 146.68 3083.3199999999997 145.781 3083.3199999999997 144.84 L 3083.3199999999997 144.648 C 3082.7699999999995 125.199 3075.7799999999997 108.78899999999999 3062.4199999999996 95.4297 C 3048.79 81.8008 3032.3 75 3012.97 75 C 2993.3199999999997 75 2976.68 81.8008 2963.0499999999997 95.4297 C 2949.14 109.37899999999999 2942.1499999999996 125.97999999999999 2942.1499999999996 145.352 L 2942.1499999999996 347.93 L 2891.3699999999994 347.93 L 2891.3699999999994 144.84 C 2891.5599999999995 111.52000000000001 2903.5199999999995 83.0898 2927.1899999999996 59.5703 C 2950.8999999999996 35.980500000000006 2979.49 24.179700000000004 3012.97 24.179700000000004 C 3046.33 24.179700000000004 3074.8399999999997 36.01950000000001 3098.52 59.6094 C 3121.64 82.6602 3133.48 110.352 3134.1 142.699 z M 3067.2999999999997 142.5 C 3067.0699999999997 143.281 3066.95 144.059 3066.95 144.84 L 3066.95 355.85900000000004 C 3066.95 356.129 3066.99 356.41 3066.99 356.641 C 3067.0299999999997 356.91 3067.0699999999997 357.148 3067.1099999999997 357.422 C 3067.1499999999996 357.66 3067.2299999999996 357.93 3067.2999999999997 358.16 C 3067.3799999999997 358.44100000000003 3067.4599999999996 358.672 3067.58 358.91 C 3067.66 359.141 3067.77 359.379 3067.89 359.60900000000004 C 3068.0099999999998 359.84000000000003 3068.16 360.07800000000003 3068.2799999999997 360.27000000000004 C 3068.4399999999996 360.51200000000006 3068.5899999999997 360.699 3068.7499999999995 360.898 C 3068.9499999999994 361.09000000000003 3069.0999999999995 361.28900000000004 3069.2999999999997 361.48 C 3069.45 361.68 3069.6499999999996 361.84000000000003 3069.8399999999997 361.988 C 3070.0799999999995 362.191 3070.2699999999995 362.34 3070.5099999999998 362.461 C 3070.7 362.62100000000004 3070.9399999999996 362.73 3071.1699999999996 362.85200000000003 C 3071.3699999999994 363.01200000000006 3071.6399999999994 363.09000000000003 3071.8799999999997 363.199 C 3072.1099999999997 363.32 3072.3399999999997 363.398 3072.5799999999995 363.48 C 3072.8499999999995 363.55100000000004 3073.0899999999997 363.59000000000003 3073.3599999999997 363.672 C 3073.5899999999997 363.711 3073.87 363.75 3074.14 363.78900000000004 C 3074.3799999999997 363.78900000000004 3074.65 363.78900000000004 3074.8799999999997 363.78900000000004 L 3141.5999999999995 363.78900000000004 C 3141.8399999999992 363.78900000000004 3142.1099999999997 363.78900000000004 3142.3399999999992 363.78900000000004 C 3142.6199999999994 363.75000000000006 3142.8899999999994 363.71100000000007 3143.1199999999994 363.672 C 3143.3999999999996 363.59000000000003 3143.6299999999997 363.55100000000004 3143.9099999999994 363.48 C 3144.1399999999994 363.398 3144.379999999999 363.32 3144.609999999999 363.199 C 3144.8399999999992 363.09000000000003 3145.079999999999 363.012 3145.309999999999 362.85200000000003 C 3145.549999999999 362.73 3145.779999999999 362.62100000000004 3145.979999999999 362.461 C 3146.209999999999 362.34000000000003 3146.409999999999 362.19100000000003 3146.639999999999 361.988 C 3146.839999999999 361.84 3147.029999999999 361.68 3147.189999999999 361.48 C 3147.379999999999 361.28900000000004 3147.539999999999 361.09000000000003 3147.729999999999 360.898 C 3147.889999999999 360.699 3148.0499999999993 360.512 3148.199999999999 360.27000000000004 C 3148.319999999999 360.07800000000003 3148.479999999999 359.84000000000003 3148.589999999999 359.60900000000004 C 3148.7099999999987 359.379 3148.8299999999986 359.141 3148.909999999999 358.91 C 3149.019999999999 358.672 3149.099999999999 358.44100000000003 3149.179999999999 358.16 C 3149.259999999999 357.93 3149.339999999999 357.66 3149.3799999999987 357.422 C 3149.409999999999 357.148 3149.449999999999 356.91 3149.489999999999 356.641 C 3149.489999999999 356.41 3149.529999999999 356.129 3149.529999999999 355.85900000000004 L 3149.529999999999 148.051 C 3149.839999999999 147.148 3149.9999999999986 146.25 3149.9999999999986 145.35199999999998 C 3149.9999999999986 107.46099999999998 3136.5599999999986 75.16019999999997 3109.7299999999987 48.35939999999998 C 3082.9699999999984 21.67969999999998 3050.6999999999985 8.320309999999978 3012.9699999999984 8.320309999999978 C 2975.1199999999985 8.320309999999978 2942.7699999999986 21.640599999999978 2915.9799999999987 48.320299999999975 C 2889.2199999999984 74.92189999999998 2875.739999999999 107.10899999999998 2875.4699999999984 144.83999999999997 L 2875.4699999999984 355.859 C 2875.4699999999984 356.12899999999996 2875.5099999999984 356.40999999999997 2875.5099999999984 356.64099999999996 C 2875.5499999999984 356.90999999999997 2875.5899999999983 357.14799999999997 2875.6199999999985 357.42199999999997 C 2875.6599999999985 357.65999999999997 2875.7399999999984 357.92999999999995 2875.8199999999983 358.15999999999997 C 2875.8999999999983 358.441 2875.979999999998 358.67199999999997 2876.0899999999983 358.90999999999997 C 2876.1699999999983 359.14099999999996 2876.289999999998 359.37899999999996 2876.4099999999985 359.609 C 2876.5199999999986 359.84 2876.6799999999985 360.078 2876.7999999999984 360.27 C 2876.9499999999985 360.512 2877.1099999999983 360.69899999999996 2877.269999999998 360.89799999999997 C 2877.459999999998 361.09 2877.619999999998 361.289 2877.809999999998 361.47999999999996 C 2877.969999999998 361.67999999999995 2878.159999999998 361.84 2878.3999999999983 361.98799999999994 C 2878.5899999999983 362.1909999999999 2878.789999999998 362.3399999999999 2879.019999999998 362.46099999999996 C 2879.219999999998 362.621 2879.449999999998 362.72999999999996 2879.6899999999982 362.852 C 2879.9199999999983 363.012 2880.159999999998 363.09 2880.389999999998 363.19899999999996 C 2880.619999999998 363.31999999999994 2880.859999999998 363.39799999999997 2881.089999999998 363.47999999999996 C 2881.369999999998 363.551 2881.599999999998 363.59 2881.879999999998 363.67199999999997 C 2882.109999999998 363.71099999999996 2882.379999999998 363.74999999999994 2882.659999999998 363.74999999999994 C 2882.889999999998 363.78899999999993 2883.159999999998 363.78899999999993 2883.399999999998 363.78899999999993 L 2950.1199999999976 363.78899999999993 C 2950.3499999999976 363.78899999999993 2950.6199999999976 363.78899999999993 2950.899999999998 363.74999999999994 C 2951.129999999998 363.74999999999994 2951.409999999998 363.71099999999996 2951.6399999999976 363.67199999999997 C 2951.9099999999976 363.59 2952.149999999998 363.551 2952.419999999998 363.47999999999996 C 2952.6599999999976 363.39799999999997 2952.8899999999976 363.31999999999994 2953.1199999999976 363.19899999999996 C 2953.399999999998 363.09 2953.629999999998 363.01199999999994 2953.8299999999977 362.852 C 2954.0599999999977 362.72999999999996 2954.2999999999975 362.621 2954.5299999999975 362.46099999999996 C 2954.7299999999973 362.34 2954.9199999999973 362.191 2955.1599999999976 361.98799999999994 C 2955.3499999999976 361.8399999999999 2955.5499999999975 361.67999999999995 2955.6999999999975 361.47999999999996 C 2955.8999999999974 361.289 2956.0899999999974 361.09 2956.2499999999977 360.89799999999997 C 2956.4099999999976 360.69899999999996 2956.5599999999977 360.51199999999994 2956.7199999999975 360.27 C 2956.8399999999974 360.078 2956.9899999999975 359.84 2957.1099999999974 359.609 C 2957.2299999999973 359.37899999999996 2957.3399999999974 359.14099999999996 2957.4199999999973 358.90999999999997 C 2957.5399999999972 358.67199999999997 2957.619999999997 358.441 2957.6999999999975 358.15999999999997 C 2957.7699999999977 357.92999999999995 2957.8499999999976 357.65999999999997 2957.8899999999976 357.42199999999997 C 2957.9299999999976 357.14799999999997 2957.9699999999975 356.90999999999997 2958.0099999999975 356.64099999999996 C 2958.0099999999975 356.40999999999997 2958.0499999999975 356.12899999999996 2958.0499999999975 355.859 L 2958.0499999999975 145.352 C 2958.0499999999975 130.391 2963.4799999999973 117.5 2974.2999999999975 106.641 C 2984.7999999999975 96.1289 2997.6999999999975 90.85940000000001 3012.9699999999975 90.85940000000001 C 3027.9299999999976 90.85940000000001 3040.6599999999976 96.1289 3051.1699999999973 106.641 C 3060.9799999999973 116.44900000000001 3066.369999999997 128.398 3067.2999999999975 142.5 z" stroke-linecap="round" />
</g>
<g transform="matrix(0.13 0 0 -0.13 62.93 249.94)" id="jRgdeHrn7lIJbwuZdVUPJ"  >
<path style="stroke: none; stroke-width: 1; stroke-dasharray: none; stroke-linecap: butt; stroke-dashoffset: 0; stroke-linejoin: miter; stroke-miterlimit: 4; fill: rgb(234,170,0); fill-rule: nonzero; opacity: 1;" vector-effect="non-scaling-stroke"  transform=" translate(-122.05, -189.16)" d="M 244.102 101.719 L 94.5703 171.48 L 94.5703 121.801 L 172.461 83.5898 L 172.461 121.801 Z M 53.0117 135.199 L 50.6211 129.922 L 94.5703 107.93 L 94.5703 22.4609 L 172.461 22.4609 L 172.461 76.4102 z M 172.46099999999998 201.55900000000003 L 124.69099999999997 223.09000000000003 L 127.53899999999997 229.77000000000004 L 226.40999999999997 183.91000000000003 L 229.30099999999996 190.12100000000004 L 172.46099999999996 215.89800000000002 L 172.46099999999996 355.859 L 94.5703 355.859 L 94.5703 245.512 L 0 254.609 L 172.461 173.871 Z" stroke-linecap="round" />
</g>
</svg>