<?xml version="1.0" standalone="no"?>
<!DOCTYPE svg PUBLIC "-//W3C//DTD SVG 20010904//EN"
 "http://www.w3.org/TR/2001/REC-SVG-20010904/DTD/svg10.dtd">
<svg version="1.0" xmlns="http://www.w3.org/2000/svg"
 width="500.000000pt" height="500.000000pt" viewBox="0 0 500.000000 500.000000"
 preserveAspectRatio="xMidYMid meet">

<g transform="translate(0.000000,500.000000) scale(0.100000,-0.100000)"
fill="#000000" stroke="none">
<path d="M3153 2729 c-81 -15 -136 -59 -172 -139 -27 -60 -26 -123 3 -185 43
-92 115 -137 217 -136 57 0 129 26 145 52 3 6 -9 27 -28 46 -30 30 -38 33 -56
24 -11 -6 -41 -11 -66 -11 -81 0 -129 65 -112 155 12 65 115 108 177 74 18 -9
25 -5 54 28 18 21 31 41 28 46 -18 30 -127 57 -190 46z m131 -35 c33 -16 34
-18 19 -40 -14 -21 -20 -23 -78 -17 -54 5 -68 3 -99 -17 -45 -27 -66 -66 -66
-122 0 -60 30 -105 86 -130 40 -17 52 -18 91 -8 39 9 48 9 64 -6 26 -23 24
-28 -16 -47 -78 -37 -185 -15 -247 50 -29 31 -58 100 -58 141 0 76 55 162 124
193 51 23 134 24 180 3z"/>
<path d="M1082 2503 l3 -228 50 0 50 0 3 87 3 87 82 3 82 3 0 50 0 50 -82 3
-83 3 0 29 0 30 100 0 100 0 0 55 0 55 -155 0 -155 0 2 -227z m288 172 l0 -35
-100 0 -100 0 0 -50 0 -50 80 0 80 0 0 -35 0 -35 -80 0 -80 0 0 -90 0 -90 -35
0 -35 0 0 210 0 210 135 0 135 0 0 -35z"/>
<path d="M1450 2500 l0 -231 133 3 132 3 3 53 3 52 -80 0 -81 0 -2 173 -3 172
-52 3 -53 3 0 -231z m82 38 l3 -173 83 -3 83 -3 -3 -32 -3 -32 -112 -3 -113
-3 0 211 0 210 30 0 30 0 2 -172z"/>
<path d="M1740 2569 c0 -145 2 -167 21 -206 52 -107 209 -128 288 -37 42 48
46 67 46 244 l0 155 -52 3 -53 3 0 -148 c0 -163 -7 -191 -54 -206 -22 -7 -33
-5 -55 10 -26 20 -26 21 -31 179 l-5 159 -52 3 -53 3 0 -162z m82 -10 l3 -151
33 -29 c35 -32 57 -35 97 -17 46 21 55 53 55 208 l0 140 30 0 30 0 0 -157 c0
-140 -2 -162 -20 -191 -62 -101 -217 -96 -270 9 -17 33 -20 59 -20 189 l0 150
29 0 30 0 3 -151z"/>
<path d="M2154 2716 c-3 -8 -4 -31 -2 -52 l3 -39 155 0 155 0 0 50 0 50 -153
3 c-124 2 -153 0 -158 -12z m286 -41 l0 -35 -130 0 -130 0 0 35 0 35 130 0
130 0 0 -35z"/>
<path d="M2534 2717 c-2 -7 -3 -109 -2 -227 l3 -215 53 -3 52 -3 0 123 0 123
118 -124 c88 -93 122 -123 135 -118 15 6 17 29 17 232 l0 226 -52 -3 -53 -3
-5 -108 -5 -107 -110 110 c-103 104 -139 127 -151 97z m279 -247 c4 0 7 54 7
120 l0 120 35 0 35 0 0 -212 -1 -213 -127 133 c-70 73 -131 130 -135 126 -4
-4 -7 -63 -7 -131 l0 -123 -30 0 -30 0 0 212 0 213 123 -123 c67 -67 126 -122
130 -122z"/>
<path d="M3420 2500 l0 -231 53 3 52 3 0 225 0 225 -52 3 -53 3 0 -231z m82
103 c1 -60 2 -151 2 -203 l1 -95 -33 -3 -32 -3 0 205 0 206 30 0 30 0 2 -107z"/>
<path d="M3692 2720 c-115 -47 -175 -201 -123 -315 88 -193 373 -174 437 29
l13 41 0 -34 c3 -157 207 -232 310 -115 42 48 46 67 46 244 l0 155 -52 3 -53
3 0 -148 c0 -163 -7 -191 -54 -206 -22 -7 -33 -5 -55 10 -26 20 -26 21 -31
179 l-5 159 -52 3 -53 3 -1 -103 c0 -100 -1 -102 -13 -61 -19 58 -68 117 -119
142 -46 23 -151 28 -195 11z m176 -25 c80 -34 122 -101 122 -196 0 -76 -29
-132 -91 -175 -38 -26 -50 -29 -119 -29 -68 0 -80 3 -113 28 -20 15 -49 44
-64 64 -25 33 -28 45 -28 114 0 71 3 81 31 120 59 81 169 112 262 74z m234
-136 l3 -151 33 -29 c35 -32 57 -35 97 -17 46 21 55 53 55 208 l0 140 30 0 30
0 0 -157 c0 -140 -2 -162 -20 -191 -60 -98 -207 -97 -265 3 -24 39 -25 50 -25
193 l0 152 29 0 29 0 4 -151z"/>
<path d="M3724 2636 c-17 -8 -43 -29 -58 -48 -21 -28 -26 -46 -26 -91 0 -53 3
-60 40 -97 37 -37 44 -40 97 -40 66 0 110 27 137 83 21 46 20 72 -5 123 -15
31 -32 48 -63 63 -49 24 -78 26 -122 7z m142 -50 c30 -30 34 -40 34 -86 0 -47
-4 -56 -36 -86 -30 -29 -43 -34 -84 -34 -43 0 -54 5 -85 35 -30 31 -35 42 -35
85 0 41 5 54 34 84 30 32 39 36 86 36 46 0 56 -4 86 -34z"/>
<path d="M480 2650 l0 -70 -52 -1 -53 -1 100 -48 c92 -44 100 -47 103 -29 3
15 9 18 25 14 22 -5 22 -5 0 6 -21 11 -23 19 -23 106 l0 93 -50 0 -50 0 0 -70z
m80 -115 c14 -8 21 -14 15 -14 -5 0 -21 6 -35 14 -14 8 -20 14 -15 14 6 0 21
-6 35 -14z"/>
<path d="M650 2616 c0 -74 -4 -106 -12 -109 -10 -4 -10 -6 0 -6 9 -1 12 -30
12 -111 l0 -110 45 0 45 0 0 128 1 127 122 -128 c67 -70 128 -127 135 -127 9
0 12 51 12 220 l0 220 -45 0 -45 0 0 -122 0 -123 -123 123 c-67 67 -128 122
-135 122 -9 0 -12 -28 -12 -104z"/>
<path d="M2154 2546 c-3 -7 -4 -31 -2 -52 l3 -39 130 0 130 0 0 50 0 50 -128
3 c-103 2 -128 0 -133 -12z m236 -41 l0 -35 -105 0 -105 0 0 35 0 35 105 0
105 0 0 -35z"/>
<path d="M481 2375 l-1 -95 50 0 50 0 0 66 0 66 33 -7 c23 -5 15 2 -29 23
-109 53 -102 57 -103 -53z"/>
<path d="M440 2415 c14 -8 30 -14 35 -14 6 0 -1 6 -15 14 -14 8 -29 14 -35 14
-5 0 1 -6 15 -14z"/>
<path d="M2154 2366 c-3 -8 -4 -31 -2 -52 l3 -39 153 -3 152 -3 0 56 0 55
-150 0 c-120 0 -152 -3 -156 -14z m286 -41 l0 -35 -130 0 -130 0 0 35 0 35
130 0 130 0 0 -35z"/>
</g>
</svg>
